<svg width="116" height="39" viewBox="0 0 116 39" fill="none" xmlns="http://www.w3.org/2000/svg">
<path d="M28.4586 13.552H14.9166V17.545H24.5465C24.065 23.1715 19.3704 25.652 14.9768 25.652C9.31927 25.652 4.38397 21.175 4.38397 14.9435C4.38397 8.83299 9.07852 4.11399 14.9768 4.11399C19.551 4.11399 22.1992 7.01799 22.1992 7.01799L24.9678 4.11399C24.9678 4.11399 21.3566 0.120991 14.7962 0.120991C6.43032 0.0604905 -0.00964355 7.13899 -0.00964355 14.8225C-0.00964355 22.3245 6.0692 29.645 15.037 29.645C22.9214 29.645 28.6993 24.2605 28.6993 16.214C28.6993 14.52 28.4586 13.552 28.4586 13.552Z" fill="#AEC0CE"/>
<path fill-rule="evenodd" clip-rule="evenodd" d="M29.9633 20.0254C29.9633 14.9434 33.9356 10.5874 39.4727 10.5874C44.0469 10.5874 48.9822 13.8544 49.0424 20.1464C49.0424 25.7124 44.8293 29.6449 39.5931 29.6449C33.8152 29.6449 29.9633 25.2284 29.9633 20.0254ZM44.8293 20.1464C44.8293 16.6374 42.2413 14.3989 39.5329 14.3989C36.4634 14.3989 34.1161 16.8189 34.1763 20.0859C34.1763 23.4739 36.5236 25.8939 39.5329 25.8939C42.3015 25.8939 44.8293 23.6554 44.8293 20.1464Z" fill="#AEC0CE"/>
<path fill-rule="evenodd" clip-rule="evenodd" d="M50.6674 20.0254C50.6674 14.9434 54.6397 10.5874 60.1768 10.5874C64.751 10.5874 69.6863 13.8544 69.7465 20.1464C69.7465 25.7124 65.5334 29.6449 60.2972 29.6449C54.5193 29.6449 50.6674 25.2284 50.6674 20.0254ZM65.5334 20.1464C65.5334 16.6374 62.9454 14.3989 60.237 14.3989C57.1675 14.3989 54.8202 16.8189 54.8804 20.0859C54.8804 23.4739 57.2277 25.8939 60.237 25.8939C63.0056 25.8939 65.5334 23.6554 65.5334 20.1464Z" fill="#AEC0CE"/>
<path fill-rule="evenodd" clip-rule="evenodd" d="M71.3716 20.1465C71.3716 15.1249 75.3439 10.6479 80.4597 10.6479C82.6867 10.6479 84.3719 11.4949 85.4552 12.8259V11.1924H89.4275V28.3139C89.4275 35.0294 85.5756 38.236 80.5199 38.236C75.8856 38.236 73.2976 35.3925 72.0336 32.67L75.705 31.1574C76.2467 32.3675 77.6912 34.5455 80.5801 34.5455C83.5894 34.5455 85.5756 32.549 85.5756 29.2819V27.4065C84.4321 28.677 83.0478 29.7055 80.3394 29.7055C76.0059 29.7055 71.3716 25.8335 71.3716 20.1465ZM85.8765 20.2069C85.8765 16.5769 83.2885 14.3989 80.8209 14.3989C78.1727 14.3989 75.5846 16.5164 75.5245 20.2674C75.5245 23.716 78.0523 25.9544 80.7607 25.9544C83.3487 25.9544 85.8765 23.9579 85.8765 20.2069Z" fill="#AEC0CE"/>
<path fill-rule="evenodd" clip-rule="evenodd" d="M98.3953 20.0859C98.3953 14.3989 102.428 10.5874 107.243 10.5874C110.974 10.5874 113.803 13.1284 115.067 16.0324L115.729 17.6054L103.03 22.9294C103.812 24.3814 105.016 25.8334 107.664 25.8334C110.011 25.8334 111.456 24.5629 112.298 23.2319L115.609 25.4704C114.164 27.4064 111.636 29.6449 107.664 29.6449C102.909 29.6449 98.3953 26.0754 98.3953 20.0859ZM110.914 16.3349C110.312 15.1854 109.109 14.2779 107.363 14.2779C104.655 14.2779 102.007 17.1214 102.488 19.9044L110.914 16.3349Z" fill="#AEC0CE"/>
<path d="M92.3767 29.1006H96.5296V1.02856H92.3767V29.1006Z" fill="#AEC0CE"/>
</svg>
