<svg width="140" height="22" viewBox="0 0 140 22" fill="none" xmlns="http://www.w3.org/2000/svg">
<path d="M34.208 16.4748C33.1307 16.4748 32.1813 16.2348 31.36 15.7548C30.5493 15.2642 29.9093 14.5868 29.44 13.7228C28.9813 12.8482 28.752 11.8348 28.752 10.6828C28.752 9.5415 28.9813 8.53884 29.44 7.67484C29.9093 6.80017 30.5493 6.1175 31.36 5.62684C32.1813 5.13617 33.1307 4.89084 34.208 4.89084C35.3067 4.89084 36.2613 5.13617 37.072 5.62684C37.8933 6.1175 38.528 6.80017 38.976 7.67484C39.4347 8.53884 39.664 9.5415 39.664 10.6828C39.664 11.8348 39.4347 12.8482 38.976 13.7228C38.528 14.5868 37.8933 15.2642 37.072 15.7548C36.2613 16.2348 35.3067 16.4748 34.208 16.4748ZM34.208 15.2908C35.0187 15.2908 35.728 15.1095 36.336 14.7468C36.9547 14.3735 37.4347 13.8455 37.776 13.1628C38.1173 12.4695 38.288 11.6428 38.288 10.6828C38.288 9.72284 38.1173 8.9015 37.776 8.21884C37.4347 7.5255 36.9547 6.9975 36.336 6.63484C35.728 6.27217 35.0187 6.09084 34.208 6.09084C33.3973 6.09084 32.688 6.27217 32.08 6.63484C31.472 6.9975 30.992 7.5255 30.64 8.21884C30.2987 8.9015 30.128 9.72284 30.128 10.6828C30.128 11.6428 30.2987 12.4695 30.64 13.1628C30.992 13.8455 31.472 14.3735 32.08 14.7468C32.688 15.1095 33.3973 15.2908 34.208 15.2908ZM44.9939 16.2828C44.5139 16.2828 44.0979 16.2082 43.7459 16.0588C43.3939 15.9095 43.1219 15.6588 42.9299 15.3068C42.7485 14.9442 42.6579 14.4588 42.6579 13.8508V9.38684H41.2659V8.25084H42.6579L42.8339 6.31484H44.0019V8.25084H46.3539V9.38684H44.0019V13.8508C44.0019 14.3522 44.1032 14.6935 44.3059 14.8748C44.5085 15.0455 44.8659 15.1308 45.3779 15.1308H46.2419V16.2828H44.9939ZM48.3759 16.2828V4.76284H49.7199V9.61084C49.9972 9.12017 50.3759 8.7415 50.8559 8.47484C51.3359 8.1975 51.8692 8.05884 52.4559 8.05884C53.0745 8.05884 53.6079 8.18684 54.0559 8.44284C54.5145 8.68817 54.8665 9.06684 55.1119 9.57884C55.3679 10.0908 55.4959 10.7362 55.4959 11.5148V16.2828H54.1679V11.6588C54.1679 10.8482 53.9972 10.2402 53.6559 9.83484C53.3145 9.41884 52.8185 9.21084 52.1679 9.21084C51.7092 9.21084 51.2932 9.32284 50.9199 9.54684C50.5572 9.76017 50.2639 10.0802 50.0399 10.5068C49.8265 10.9228 49.7199 11.4348 49.7199 12.0428V16.2828H48.3759ZM61.4154 16.4748C60.6687 16.4748 60.002 16.2988 59.4154 15.9468C58.8287 15.5948 58.3647 15.1042 58.0234 14.4748C57.6927 13.8455 57.5274 13.1095 57.5274 12.2668C57.5274 11.4135 57.6927 10.6775 58.0234 10.0588C58.354 9.4295 58.8127 8.93884 59.3994 8.58684C59.9967 8.23484 60.6794 8.05884 61.4474 8.05884C62.2367 8.05884 62.9087 8.23484 63.4634 8.58684C64.018 8.93884 64.4394 9.3975 64.7274 9.96284C65.026 10.5282 65.1754 11.1522 65.1754 11.8348C65.1754 11.9415 65.1754 12.0535 65.1754 12.1708C65.1754 12.2882 65.17 12.4215 65.1594 12.5708H58.5354V11.5308H63.8474C63.8154 10.7948 63.57 10.2242 63.1114 9.81884C62.6634 9.40284 62.098 9.19484 61.4154 9.19484C60.9674 9.19484 60.546 9.3015 60.1514 9.51484C59.7567 9.7175 59.4367 10.0162 59.1914 10.4108C58.9567 10.8055 58.8394 11.3015 58.8394 11.8988V12.3468C58.8394 13.0082 58.962 13.5628 59.2074 14.0108C59.4527 14.4482 59.7674 14.7788 60.1514 15.0028C60.546 15.2268 60.9674 15.3388 61.4154 15.3388C61.9807 15.3388 62.4447 15.2162 62.8074 14.9708C63.1807 14.7148 63.4527 14.3682 63.6234 13.9308H64.9514C64.8127 14.4215 64.5834 14.8588 64.2634 15.2428C63.9434 15.6162 63.5434 15.9148 63.0634 16.1388C62.594 16.3628 62.0447 16.4748 61.4154 16.4748ZM67.2571 16.2828V8.25084H68.4731L68.5851 9.78684C68.7665 9.42417 68.9958 9.11484 69.2731 8.85884C69.5611 8.60284 69.9025 8.4055 70.2971 8.26684C70.6918 8.12817 71.1398 8.05884 71.6411 8.05884V9.46684H71.1771C70.8358 9.46684 70.5105 9.51484 70.2011 9.61084C69.8918 9.69617 69.6145 9.84017 69.3691 10.0428C69.1345 10.2348 68.9478 10.5068 68.8091 10.8588C68.6705 11.2108 68.6011 11.6428 68.6011 12.1548V16.2828H67.2571ZM76.4878 16.4748C75.8371 16.4748 75.2611 16.3682 74.7598 16.1548C74.2584 15.9308 73.8584 15.6162 73.5598 15.2108C73.2718 14.8055 73.0904 14.3308 73.0158 13.7868H74.3918C74.4558 14.0642 74.5731 14.3255 74.7438 14.5708C74.9144 14.8055 75.1438 14.9922 75.4318 15.1308C75.7304 15.2695 76.0878 15.3388 76.5038 15.3388C76.8878 15.3388 77.2024 15.2855 77.4478 15.1788C77.6931 15.0615 77.8744 14.9068 77.9918 14.7148C78.1091 14.5228 78.1678 14.3148 78.1678 14.0908C78.1678 13.7708 78.0878 13.5255 77.9278 13.3548C77.7784 13.1842 77.5544 13.0508 77.2558 12.9548C76.9571 12.8482 76.5998 12.7575 76.1838 12.6828C75.8318 12.6188 75.4851 12.5335 75.1438 12.4268C74.8131 12.3202 74.5144 12.1815 74.2478 12.0108C73.9811 11.8402 73.7678 11.6268 73.6078 11.3708C73.4478 11.1042 73.3678 10.7895 73.3678 10.4268C73.3678 9.96817 73.4851 9.56284 73.7198 9.21084C73.9651 8.84817 74.3011 8.5655 74.7278 8.36284C75.1651 8.16017 75.6824 8.05884 76.2798 8.05884C77.1331 8.05884 77.8264 8.26684 78.3598 8.68284C78.9038 9.09884 79.2184 9.7015 79.3038 10.4908H77.9758C77.9331 10.0855 77.7624 9.77084 77.4638 9.54684C77.1651 9.31217 76.7651 9.19484 76.2638 9.19484C75.7624 9.19484 75.3784 9.29617 75.1118 9.49884C74.8558 9.7015 74.7278 9.96817 74.7278 10.2988C74.7278 10.5122 74.7971 10.6988 74.9358 10.8588C75.0851 11.0188 75.3038 11.1575 75.5918 11.2748C75.8798 11.3815 76.2264 11.4775 76.6318 11.5628C77.1544 11.6588 77.6344 11.7868 78.0718 11.9468C78.5091 12.1068 78.8611 12.3415 79.1278 12.6508C79.4051 12.9602 79.5438 13.4028 79.5438 13.9788C79.5544 14.4802 79.4318 14.9175 79.1758 15.2908C78.9304 15.6642 78.5784 15.9575 78.1198 16.1708C77.6611 16.3735 77.1171 16.4748 76.4878 16.4748ZM90.569 16.4748C90.1103 16.4748 89.6943 16.4108 89.321 16.2828C88.9583 16.1548 88.6383 15.9788 88.361 15.7548C88.0837 15.5202 87.8543 15.2535 87.673 14.9548L87.545 16.2828H86.329V4.76284H87.673V9.56284C87.929 9.1575 88.297 8.8055 88.777 8.50684C89.257 8.20817 89.8543 8.05884 90.569 8.05884C91.3583 8.05884 92.041 8.24017 92.617 8.60284C93.2037 8.9655 93.657 9.46684 93.977 10.1068C94.3077 10.7362 94.473 11.4562 94.473 12.2668C94.473 13.0775 94.3077 13.8028 93.977 14.4428C93.657 15.0722 93.2037 15.5682 92.617 15.9308C92.0303 16.2935 91.3477 16.4748 90.569 16.4748ZM90.409 15.3068C90.9423 15.3068 91.4117 15.1842 91.817 14.9388C92.2223 14.6828 92.537 14.3255 92.761 13.8668C92.9957 13.4082 93.113 12.8748 93.113 12.2668C93.113 11.6588 92.9957 11.1255 92.761 10.6668C92.537 10.2082 92.2223 9.85617 91.817 9.61084C91.4117 9.35484 90.9423 9.22684 90.409 9.22684C89.8757 9.22684 89.4063 9.35484 89.001 9.61084C88.5957 9.85617 88.281 10.2082 88.057 10.6668C87.833 11.1255 87.721 11.6588 87.721 12.2668C87.721 12.8748 87.833 13.4082 88.057 13.8668C88.281 14.3255 88.5957 14.6828 89.001 14.9388C89.4063 15.1842 89.8757 15.3068 90.409 15.3068ZM100.212 16.4748C99.4656 16.4748 98.7989 16.2988 98.2123 15.9468C97.6256 15.5948 97.1616 15.1042 96.8203 14.4748C96.4896 13.8455 96.3243 13.1095 96.3243 12.2668C96.3243 11.4135 96.4896 10.6775 96.8203 10.0588C97.1509 9.4295 97.6096 8.93884 98.1963 8.58684C98.7936 8.23484 99.4763 8.05884 100.244 8.05884C101.034 8.05884 101.706 8.23484 102.26 8.58684C102.815 8.93884 103.236 9.3975 103.524 9.96284C103.823 10.5282 103.972 11.1522 103.972 11.8348C103.972 11.9415 103.972 12.0535 103.972 12.1708C103.972 12.2882 103.967 12.4215 103.956 12.5708H97.3323V11.5308H102.644C102.612 10.7948 102.367 10.2242 101.908 9.81884C101.46 9.40284 100.895 9.19484 100.212 9.19484C99.7643 9.19484 99.3429 9.3015 98.9483 9.51484C98.5536 9.7175 98.2336 10.0162 97.9883 10.4108C97.7536 10.8055 97.6363 11.3015 97.6363 11.8988V12.3468C97.6363 13.0082 97.7589 13.5628 98.0043 14.0108C98.2496 14.4482 98.5643 14.7788 98.9483 15.0028C99.3429 15.2268 99.7643 15.3388 100.212 15.3388C100.778 15.3388 101.242 15.2162 101.604 14.9708C101.978 14.7148 102.25 14.3682 102.42 13.9308H103.748C103.61 14.4215 103.38 14.8588 103.06 15.2428C102.74 15.6162 102.34 15.9148 101.86 16.1388C101.391 16.3628 100.842 16.4748 100.212 16.4748ZM106.054 16.2828V8.25084H107.27L107.35 9.65884C107.606 9.1575 107.969 8.76817 108.438 8.49084C108.918 8.20284 109.462 8.05884 110.07 8.05884C110.699 8.05884 111.243 8.1815 111.702 8.42684C112.161 8.67217 112.518 9.05084 112.774 9.56284C113.03 10.0748 113.158 10.7202 113.158 11.4988V16.2828H111.814V11.6428C111.814 10.8322 111.638 10.2242 111.286 9.81884C110.934 9.4135 110.427 9.21084 109.766 9.21084C109.318 9.21084 108.913 9.32284 108.55 9.54684C108.198 9.76017 107.915 10.0748 107.702 10.4908C107.499 10.9068 107.398 11.4135 107.398 12.0108V16.2828H106.054ZM119.078 16.4748C118.331 16.4748 117.665 16.2988 117.078 15.9468C116.491 15.5948 116.027 15.1042 115.686 14.4748C115.355 13.8455 115.19 13.1095 115.19 12.2668C115.19 11.4135 115.355 10.6775 115.686 10.0588C116.017 9.4295 116.475 8.93884 117.062 8.58684C117.659 8.23484 118.342 8.05884 119.11 8.05884C119.899 8.05884 120.571 8.23484 121.126 8.58684C121.681 8.93884 122.102 9.3975 122.39 9.96284C122.689 10.5282 122.838 11.1522 122.838 11.8348C122.838 11.9415 122.838 12.0535 122.838 12.1708C122.838 12.2882 122.833 12.4215 122.822 12.5708H116.198V11.5308H121.51C121.478 10.7948 121.233 10.2242 120.774 9.81884C120.326 9.40284 119.761 9.19484 119.078 9.19484C118.63 9.19484 118.209 9.3015 117.814 9.51484C117.419 9.7175 117.099 10.0162 116.854 10.4108C116.619 10.8055 116.502 11.3015 116.502 11.8988V12.3468C116.502 13.0082 116.625 13.5628 116.87 14.0108C117.115 14.4482 117.43 14.7788 117.814 15.0028C118.209 15.2268 118.63 15.3388 119.078 15.3388C119.643 15.3388 120.107 15.2162 120.47 14.9708C120.843 14.7148 121.115 14.3682 121.286 13.9308H122.614C122.475 14.4215 122.246 14.8588 121.926 15.2428C121.606 15.6162 121.206 15.9148 120.726 16.1388C120.257 16.3628 119.707 16.4748 119.078 16.4748ZM125.368 16.2828V9.38684H124.152V8.25084H125.368V6.97084C125.368 6.45884 125.453 6.04284 125.624 5.72284C125.794 5.39217 126.045 5.15217 126.376 5.00284C126.717 4.84284 127.133 4.76284 127.624 4.76284H128.424V5.91484H127.832C127.437 5.91484 127.149 5.99484 126.968 6.15484C126.797 6.31484 126.712 6.5975 126.712 7.00284V8.25084H131.576V16.2828H130.232V9.38684H126.712V16.2828H125.368ZM130.92 6.71484C130.664 6.71484 130.445 6.6295 130.264 6.45884C130.082 6.2775 129.992 6.0535 129.992 5.78684C129.992 5.52017 130.082 5.30684 130.264 5.14684C130.445 4.97617 130.664 4.89084 130.92 4.89084C131.186 4.89084 131.405 4.97617 131.576 5.14684C131.757 5.30684 131.848 5.52017 131.848 5.78684C131.848 6.0535 131.757 6.2775 131.576 6.45884C131.405 6.6295 131.186 6.71484 130.92 6.71484ZM137.403 16.2828C136.923 16.2828 136.507 16.2082 136.155 16.0588C135.803 15.9095 135.531 15.6588 135.339 15.3068C135.158 14.9442 135.067 14.4588 135.067 13.8508V9.38684H133.675V8.25084H135.067L135.243 6.31484H136.411V8.25084H138.763V9.38684H136.411V13.8508C136.411 14.3522 136.513 14.6935 136.715 14.8748C136.918 15.0455 137.275 15.1308 137.787 15.1308H138.651V16.2828H137.403Z" fill="#90A3B4"/>
<g clip-path="url(#clip0_134_1413)">
<path d="M14.6667 10.6695V11.2828C14.6659 12.7204 14.2004 14.1192 13.3396 15.2707C12.4788 16.4221 11.2689 17.2644 9.89028 17.6721C8.51166 18.0797 7.03821 18.0307 5.68969 17.5325C4.34116 17.0343 3.18981 16.1135 2.40735 14.9075C1.62488 13.7015 1.25323 12.2748 1.34783 10.8403C1.44242 9.40583 1.99818 8.04034 2.93223 6.9475C3.86628 5.85467 5.12856 5.09304 6.53083 4.77622C7.9331 4.45939 9.40022 4.60435 10.7134 5.18945" stroke="#18B7E7" stroke-width="2" stroke-linecap="round" stroke-linejoin="round"/>
<path d="M14.6667 5.94946L8 12.6228L6 10.6228" stroke="#18B7E7" stroke-width="2" stroke-linecap="round" stroke-linejoin="round"/>
</g>
<defs>
<clipPath id="clip0_134_1413">
<rect width="16" height="16" fill="white" transform="translate(0 3.28284)"/>
</clipPath>
</defs>
</svg>
