<svg width="122" height="22" viewBox="0 0 122 22" fill="none" xmlns="http://www.w3.org/2000/svg">
<path d="M34 16.4748C32.9547 16.4748 32.0373 16.2348 31.248 15.7548C30.4587 15.2642 29.8453 14.5868 29.408 13.7228C28.9707 12.8588 28.752 11.8508 28.752 10.6988C28.752 9.5575 28.9707 8.5495 29.408 7.67484C29.856 6.80017 30.4853 6.1175 31.296 5.62684C32.1173 5.13617 33.0827 4.89084 34.192 4.89084C35.4507 4.89084 36.5013 5.19484 37.344 5.80284C38.1867 6.40017 38.7253 7.2375 38.96 8.31484H37.408C37.2587 7.64284 36.9067 7.1095 36.352 6.71484C35.7973 6.32017 35.0773 6.12284 34.192 6.12284C33.3707 6.12284 32.6507 6.3095 32.032 6.68284C31.424 7.0455 30.9547 7.56817 30.624 8.25084C30.2933 8.9335 30.128 9.7495 30.128 10.6988C30.128 11.6482 30.2933 12.4695 30.624 13.1628C30.9547 13.8455 31.4133 14.3682 32 14.7308C32.5973 15.0935 33.28 15.2748 34.048 15.2748C35.2427 15.2748 36.144 14.9228 36.752 14.2188C37.36 13.5148 37.7067 12.5602 37.792 11.3548H34.56V10.2988H39.168V16.2828H37.936L37.824 14.4428C37.5573 14.8802 37.248 15.2535 36.896 15.5628C36.5547 15.8615 36.1493 16.0908 35.68 16.2508C35.2107 16.4002 34.6507 16.4748 34 16.4748ZM45.081 16.4748C44.3343 16.4748 43.6677 16.2988 43.081 15.9468C42.4943 15.5948 42.0303 15.1042 41.689 14.4748C41.3583 13.8455 41.193 13.1095 41.193 12.2668C41.193 11.4135 41.3583 10.6775 41.689 10.0588C42.0197 9.4295 42.4783 8.93884 43.065 8.58684C43.6623 8.23484 44.345 8.05884 45.113 8.05884C45.9023 8.05884 46.5743 8.23484 47.129 8.58684C47.6837 8.93884 48.105 9.3975 48.393 9.96284C48.6917 10.5282 48.841 11.1522 48.841 11.8348C48.841 11.9415 48.841 12.0535 48.841 12.1708C48.841 12.2882 48.8357 12.4215 48.825 12.5708H42.201V11.5308H47.513C47.481 10.7948 47.2357 10.2242 46.777 9.81884C46.329 9.40284 45.7637 9.19484 45.081 9.19484C44.633 9.19484 44.2117 9.3015 43.817 9.51484C43.4223 9.7175 43.1023 10.0162 42.857 10.4108C42.6223 10.8055 42.505 11.3015 42.505 11.8988V12.3468C42.505 13.0082 42.6277 13.5628 42.873 14.0108C43.1183 14.4482 43.433 14.7788 43.817 15.0028C44.2117 15.2268 44.633 15.3388 45.081 15.3388C45.6463 15.3388 46.1103 15.2162 46.473 14.9708C46.8463 14.7148 47.1183 14.3682 47.289 13.9308H48.617C48.4783 14.4215 48.249 14.8588 47.929 15.2428C47.609 15.6162 47.209 15.9148 46.729 16.1388C46.2597 16.3628 45.7103 16.4748 45.081 16.4748ZM54.5388 16.4748C53.7921 16.4748 53.1201 16.3042 52.5228 15.9628C51.9254 15.6108 51.4508 15.1202 51.0988 14.4908C50.7574 13.8615 50.5868 13.1202 50.5868 12.2668C50.5868 11.4135 50.7628 10.6722 51.1148 10.0428C51.4668 9.4135 51.9414 8.92817 52.5388 8.58684C53.1468 8.23484 53.8241 8.05884 54.5708 8.05884C55.3281 8.05884 56.0054 8.23484 56.6028 8.58684C57.2001 8.92817 57.6694 9.4135 58.0108 10.0428C58.3521 10.6722 58.5228 11.4135 58.5228 12.2668C58.5228 13.1202 58.3468 13.8615 57.9948 14.4908C57.6534 15.1202 57.1788 15.6108 56.5708 15.9628C55.9734 16.3042 55.2961 16.4748 54.5388 16.4748ZM54.5388 15.3228C55.0081 15.3228 55.4401 15.2108 55.8348 14.9868C56.2294 14.7522 56.5441 14.4108 56.7788 13.9628C57.0241 13.5042 57.1468 12.9388 57.1468 12.2668C57.1468 11.5842 57.0294 11.0188 56.7948 10.5708C56.5601 10.1228 56.2454 9.78684 55.8508 9.56284C55.4561 9.32817 55.0294 9.21084 54.5708 9.21084C54.1228 9.21084 53.6961 9.32817 53.2908 9.56284C52.8961 9.78684 52.5761 10.1228 52.3308 10.5708C52.0854 11.0188 51.9628 11.5842 51.9628 12.2668C51.9628 12.9388 52.0854 13.5042 52.3308 13.9628C52.5761 14.4108 52.8908 14.7522 53.2748 14.9868C53.6694 15.2108 54.0908 15.3228 54.5388 15.3228ZM60.7071 16.2828V4.76284H62.0511V16.2828H60.7071ZM68.1856 16.4748C67.439 16.4748 66.767 16.3042 66.1696 15.9628C65.5723 15.6108 65.0976 15.1202 64.7456 14.4908C64.4043 13.8615 64.2336 13.1202 64.2336 12.2668C64.2336 11.4135 64.4096 10.6722 64.7616 10.0428C65.1136 9.4135 65.5883 8.92817 66.1856 8.58684C66.7936 8.23484 67.471 8.05884 68.2176 8.05884C68.975 8.05884 69.6523 8.23484 70.2496 8.58684C70.847 8.92817 71.3163 9.4135 71.6576 10.0428C71.999 10.6722 72.1696 11.4135 72.1696 12.2668C72.1696 13.1202 71.9936 13.8615 71.6416 14.4908C71.3003 15.1202 70.8256 15.6108 70.2176 15.9628C69.6203 16.3042 68.943 16.4748 68.1856 16.4748ZM68.1856 15.3228C68.655 15.3228 69.087 15.2108 69.4816 14.9868C69.8763 14.7522 70.191 14.4108 70.4256 13.9628C70.671 13.5042 70.7936 12.9388 70.7936 12.2668C70.7936 11.5842 70.6763 11.0188 70.4416 10.5708C70.207 10.1228 69.8923 9.78684 69.4976 9.56284C69.103 9.32817 68.6763 9.21084 68.2176 9.21084C67.7696 9.21084 67.343 9.32817 66.9376 9.56284C66.543 9.78684 66.223 10.1228 65.9776 10.5708C65.7323 11.0188 65.6096 11.5842 65.6096 12.2668C65.6096 12.9388 65.7323 13.5042 65.9776 13.9628C66.223 14.4108 66.5376 14.7522 66.9216 14.9868C67.3163 15.2108 67.7376 15.3228 68.1856 15.3228ZM78.002 16.4748C77.2447 16.4748 76.562 16.2988 75.954 15.9468C75.3567 15.5948 74.882 15.1042 74.53 14.4748C74.1887 13.8455 74.018 13.1095 74.018 12.2668C74.018 11.4242 74.1887 10.6882 74.53 10.0588C74.882 9.4295 75.3567 8.93884 75.954 8.58684C76.562 8.23484 77.2447 8.05884 78.002 8.05884C78.962 8.05884 79.762 8.3095 80.402 8.81084C81.042 9.3015 81.4473 9.96284 81.618 10.7948H80.242C80.1353 10.2935 79.874 9.90417 79.458 9.62684C79.042 9.3495 78.5513 9.21084 77.986 9.21084C77.5273 9.21084 77.1007 9.32817 76.706 9.56284C76.322 9.78684 76.0073 10.1282 75.762 10.5868C75.5167 11.0348 75.394 11.5948 75.394 12.2668C75.394 12.7682 75.4633 13.2108 75.602 13.5948C75.7513 13.9788 75.9433 14.3042 76.178 14.5708C76.4127 14.8268 76.6847 15.0188 76.994 15.1468C77.314 15.2748 77.6447 15.3388 77.986 15.3388C78.37 15.3388 78.7167 15.2802 79.026 15.1628C79.3353 15.0348 79.5967 14.8535 79.81 14.6188C80.0233 14.3735 80.1673 14.0802 80.242 13.7388H81.618C81.4473 14.5602 81.0367 15.2215 80.386 15.7228C79.746 16.2242 78.9513 16.4748 78.002 16.4748ZM86.4346 16.4748C85.784 16.4748 85.24 16.3628 84.8026 16.1388C84.3653 15.9042 84.04 15.6002 83.8266 15.2268C83.6133 14.8428 83.5066 14.4322 83.5066 13.9948C83.5066 13.4508 83.6453 12.9922 83.9226 12.6188C84.2106 12.2348 84.6106 11.9468 85.1226 11.7548C85.6453 11.5522 86.2533 11.4508 86.9466 11.4508H89.0906C89.0906 10.9495 89.0106 10.5335 88.8506 10.2028C88.7013 9.87217 88.4773 9.6215 88.1786 9.45084C87.88 9.28017 87.5173 9.19484 87.0906 9.19484C86.5786 9.19484 86.136 9.32284 85.7626 9.57884C85.3893 9.83484 85.16 10.2135 85.0746 10.7148H83.6986C83.7626 10.1388 83.9546 9.65884 84.2746 9.27484C84.6053 8.88017 85.0213 8.5815 85.5226 8.37884C86.024 8.1655 86.5466 8.05884 87.0906 8.05884C87.8373 8.05884 88.456 8.1975 88.9466 8.47484C89.4373 8.7415 89.8053 9.12017 90.0506 9.61084C90.3066 10.0908 90.4346 10.6562 90.4346 11.3068V16.2828H89.2346L89.1546 14.8588C89.048 15.0828 88.9093 15.2962 88.7386 15.4988C88.5786 15.6908 88.3866 15.8615 88.1626 16.0108C87.9493 16.1495 87.6986 16.2615 87.4106 16.3468C87.1226 16.4322 86.7973 16.4748 86.4346 16.4748ZM86.6426 15.3388C87.016 15.3388 87.352 15.2642 87.6506 15.1148C87.96 14.9548 88.2213 14.7415 88.4346 14.4748C88.648 14.2082 88.808 13.9095 88.9146 13.5788C89.032 13.2375 89.0906 12.8908 89.0906 12.5388V12.4908H87.0586C86.5466 12.4908 86.1306 12.5548 85.8106 12.6828C85.4906 12.8002 85.2613 12.9708 85.1226 13.1948C84.984 13.4082 84.9146 13.6535 84.9146 13.9308C84.9146 14.2188 84.9786 14.4695 85.1066 14.6828C85.2453 14.8855 85.4426 15.0455 85.6986 15.1628C85.9546 15.2802 86.2693 15.3388 86.6426 15.3388ZM95.747 16.2828C95.267 16.2828 94.851 16.2082 94.499 16.0588C94.147 15.9095 93.875 15.6588 93.683 15.3068C93.5017 14.9442 93.411 14.4588 93.411 13.8508V9.38684H92.019V8.25084H93.411L93.587 6.31484H94.755V8.25084H97.107V9.38684H94.755V13.8508C94.755 14.3522 94.8563 14.6935 95.059 14.8748C95.2617 15.0455 95.619 15.1308 96.131 15.1308H96.995V16.2828H95.747ZM99.273 16.2828V8.25084H100.617V16.2828H99.273ZM99.945 6.52284C99.6783 6.52284 99.4543 6.4375 99.273 6.26684C99.1023 6.0855 99.017 5.8615 99.017 5.59484C99.017 5.32817 99.1023 5.11484 99.273 4.95484C99.4543 4.78417 99.6783 4.69884 99.945 4.69884C100.201 4.69884 100.42 4.78417 100.601 4.95484C100.782 5.11484 100.873 5.32817 100.873 5.59484C100.873 5.8615 100.782 6.0855 100.601 6.26684C100.42 6.4375 100.201 6.52284 99.945 6.52284ZM106.873 16.4748C106.126 16.4748 105.454 16.3042 104.857 15.9628C104.26 15.6108 103.785 15.1202 103.433 14.4908C103.092 13.8615 102.921 13.1202 102.921 12.2668C102.921 11.4135 103.097 10.6722 103.449 10.0428C103.801 9.4135 104.276 8.92817 104.873 8.58684C105.481 8.23484 106.158 8.05884 106.905 8.05884C107.662 8.05884 108.34 8.23484 108.937 8.58684C109.534 8.92817 110.004 9.4135 110.345 10.0428C110.686 10.6722 110.857 11.4135 110.857 12.2668C110.857 13.1202 110.681 13.8615 110.329 14.4908C109.988 15.1202 109.513 15.6108 108.905 15.9628C108.308 16.3042 107.63 16.4748 106.873 16.4748ZM106.873 15.3228C107.342 15.3228 107.774 15.2108 108.169 14.9868C108.564 14.7522 108.878 14.4108 109.113 13.9628C109.358 13.5042 109.481 12.9388 109.481 12.2668C109.481 11.5842 109.364 11.0188 109.129 10.5708C108.894 10.1228 108.58 9.78684 108.185 9.56284C107.79 9.32817 107.364 9.21084 106.905 9.21084C106.457 9.21084 106.03 9.32817 105.625 9.56284C105.23 9.78684 104.91 10.1228 104.665 10.5708C104.42 11.0188 104.297 11.5842 104.297 12.2668C104.297 12.9388 104.42 13.5042 104.665 13.9628C104.91 14.4108 105.225 14.7522 105.609 14.9868C106.004 15.2108 106.425 15.3228 106.873 15.3228ZM113.042 16.2828V8.25084H114.258L114.338 9.65884C114.594 9.1575 114.956 8.76817 115.426 8.49084C115.906 8.20284 116.45 8.05884 117.058 8.05884C117.687 8.05884 118.231 8.1815 118.69 8.42684C119.148 8.67217 119.506 9.05084 119.762 9.56284C120.018 10.0748 120.146 10.7202 120.146 11.4988V16.2828H118.802V11.6428C118.802 10.8322 118.626 10.2242 118.274 9.81884C117.922 9.4135 117.415 9.21084 116.754 9.21084C116.306 9.21084 115.9 9.32284 115.538 9.54684C115.186 9.76017 114.903 10.0748 114.69 10.4908C114.487 10.9068 114.386 11.4135 114.386 12.0108V16.2828H113.042Z" fill="#90A3B4"/>
<g clip-path="url(#clip0_134_1401)">
<path d="M14.6667 10.6695V11.2828C14.6659 12.7204 14.2004 14.1192 13.3396 15.2707C12.4788 16.4221 11.2689 17.2644 9.89028 17.6721C8.51166 18.0797 7.03821 18.0307 5.68969 17.5325C4.34116 17.0343 3.18981 16.1135 2.40735 14.9075C1.62488 13.7015 1.25323 12.2748 1.34783 10.8403C1.44242 9.40583 1.99818 8.04034 2.93223 6.9475C3.86628 5.85467 5.12856 5.09304 6.53083 4.77622C7.9331 4.45939 9.40022 4.60435 10.7134 5.18945" stroke="#18B7E7" stroke-width="2" stroke-linecap="round" stroke-linejoin="round"/>
<path d="M14.6667 5.94946L8 12.6228L6 10.6228" stroke="#18B7E7" stroke-width="2" stroke-linecap="round" stroke-linejoin="round"/>
</g>
<defs>
<clipPath id="clip0_134_1401">
<rect width="16" height="16" fill="white" transform="translate(0 3.28284)"/>
</clipPath>
</defs>
</svg>
