<svg width="163" height="22" viewBox="0 0 163 22" fill="none" xmlns="http://www.w3.org/2000/svg">
<path d="M29.2 16.2828V5.08284H33.136C33.9253 5.08284 34.576 5.21084 35.088 5.46684C35.6107 5.71217 36 6.0535 36.256 6.49084C36.512 6.9175 36.64 7.3975 36.64 7.93084C36.64 8.50684 36.512 8.98684 36.256 9.37084C36.0107 9.75484 35.6853 10.0482 35.28 10.2508C34.8853 10.4535 34.464 10.5762 34.016 10.6188L34.24 10.4588C34.72 10.4695 35.1627 10.5975 35.568 10.8428C35.9733 11.0882 36.2933 11.4188 36.528 11.8348C36.7733 12.2508 36.896 12.7148 36.896 13.2268C36.896 13.7922 36.7573 14.3095 36.48 14.7788C36.2027 15.2375 35.792 15.6055 35.248 15.8828C34.7147 16.1495 34.0533 16.2828 33.264 16.2828H29.2ZM30.544 15.1628H33.12C33.8773 15.1628 34.464 14.9868 34.88 14.6348C35.3067 14.2722 35.52 13.7708 35.52 13.1308C35.52 12.5015 35.3013 12.0002 34.864 11.6268C34.4373 11.2428 33.8453 11.0508 33.088 11.0508H30.544V15.1628ZM30.544 9.97884H33.04C33.7653 9.97884 34.3147 9.80817 34.688 9.46684C35.072 9.1255 35.264 8.6615 35.264 8.07484C35.264 7.5095 35.072 7.05617 34.688 6.71484C34.3147 6.3735 33.7493 6.20284 32.992 6.20284H30.544V9.97884ZM42.5966 16.4748C41.85 16.4748 41.1833 16.2988 40.5966 15.9468C40.01 15.5948 39.546 15.1042 39.2046 14.4748C38.874 13.8455 38.7086 13.1095 38.7086 12.2668C38.7086 11.4135 38.874 10.6775 39.2046 10.0588C39.5353 9.4295 39.994 8.93884 40.5806 8.58684C41.178 8.23484 41.8606 8.05884 42.6286 8.05884C43.418 8.05884 44.09 8.23484 44.6446 8.58684C45.1993 8.93884 45.6206 9.3975 45.9086 9.96284C46.2073 10.5282 46.3566 11.1522 46.3566 11.8348C46.3566 11.9415 46.3566 12.0535 46.3566 12.1708C46.3566 12.2882 46.3513 12.4215 46.3406 12.5708H39.7166V11.5308H45.0286C44.9966 10.7948 44.7513 10.2242 44.2926 9.81884C43.8446 9.40284 43.2793 9.19484 42.5966 9.19484C42.1486 9.19484 41.7273 9.3015 41.3326 9.51484C40.938 9.7175 40.618 10.0162 40.3726 10.4108C40.138 10.8055 40.0206 11.3015 40.0206 11.8988V12.3468C40.0206 13.0082 40.1433 13.5628 40.3886 14.0108C40.634 14.4482 40.9486 14.7788 41.3326 15.0028C41.7273 15.2268 42.1486 15.3388 42.5966 15.3388C43.162 15.3388 43.626 15.2162 43.9886 14.9708C44.362 14.7148 44.634 14.3682 44.8046 13.9308H46.1326C45.994 14.4215 45.7646 14.8588 45.4446 15.2428C45.1246 15.6162 44.7246 15.9148 44.2446 16.1388C43.7753 16.3628 43.226 16.4748 42.5966 16.4748ZM51.4784 16.4748C50.8277 16.4748 50.2517 16.3682 49.7504 16.1548C49.249 15.9308 48.849 15.6162 48.5504 15.2108C48.2624 14.8055 48.081 14.3308 48.0064 13.7868H49.3824C49.4464 14.0642 49.5637 14.3255 49.7344 14.5708C49.905 14.8055 50.1344 14.9922 50.4224 15.1308C50.721 15.2695 51.0784 15.3388 51.4944 15.3388C51.8784 15.3388 52.193 15.2855 52.4384 15.1788C52.6837 15.0615 52.865 14.9068 52.9824 14.7148C53.0997 14.5228 53.1584 14.3148 53.1584 14.0908C53.1584 13.7708 53.0784 13.5255 52.9184 13.3548C52.769 13.1842 52.545 13.0508 52.2464 12.9548C51.9477 12.8482 51.5904 12.7575 51.1744 12.6828C50.8224 12.6188 50.4757 12.5335 50.1344 12.4268C49.8037 12.3202 49.505 12.1815 49.2384 12.0108C48.9717 11.8402 48.7584 11.6268 48.5984 11.3708C48.4384 11.1042 48.3584 10.7895 48.3584 10.4268C48.3584 9.96817 48.4757 9.56284 48.7104 9.21084C48.9557 8.84817 49.2917 8.5655 49.7184 8.36284C50.1557 8.16017 50.673 8.05884 51.2704 8.05884C52.1237 8.05884 52.817 8.26684 53.3504 8.68284C53.8944 9.09884 54.209 9.7015 54.2944 10.4908H52.9664C52.9237 10.0855 52.753 9.77084 52.4544 9.54684C52.1557 9.31217 51.7557 9.19484 51.2544 9.19484C50.753 9.19484 50.369 9.29617 50.1024 9.49884C49.8464 9.7015 49.7184 9.96817 49.7184 10.2988C49.7184 10.5122 49.7877 10.6988 49.9264 10.8588C50.0757 11.0188 50.2944 11.1575 50.5824 11.2748C50.8704 11.3815 51.217 11.4775 51.6224 11.5628C52.145 11.6588 52.625 11.7868 53.0624 11.9468C53.4997 12.1068 53.8517 12.3415 54.1184 12.6508C54.3957 12.9602 54.5344 13.4028 54.5344 13.9788C54.545 14.4802 54.4224 14.9175 54.1664 15.2908C53.921 15.6642 53.569 15.9575 53.1104 16.1708C52.6517 16.3735 52.1077 16.4748 51.4784 16.4748ZM59.5782 16.2828C59.0982 16.2828 58.6822 16.2082 58.3302 16.0588C57.9782 15.9095 57.7062 15.6588 57.5142 15.3068C57.3329 14.9442 57.2422 14.4588 57.2422 13.8508V9.38684H55.8502V8.25084H57.2422L57.4182 6.31484H58.5862V8.25084H60.9383V9.38684H58.5862V13.8508C58.5862 14.3522 58.6876 14.6935 58.8902 14.8748C59.0929 15.0455 59.4502 15.1308 59.9622 15.1308H60.8263V16.2828H59.5782ZM70.2143 16.2828V6.18684H66.8703V5.08284H74.9023V6.18684H71.5583V16.2828H70.2143ZM76.923 16.2828V8.25084H78.267V16.2828H76.923ZM77.595 6.52284C77.3283 6.52284 77.1043 6.4375 76.923 6.26684C76.7523 6.0855 76.667 5.8615 76.667 5.59484C76.667 5.32817 76.7523 5.11484 76.923 4.95484C77.1043 4.78417 77.3283 4.69884 77.595 4.69884C77.851 4.69884 78.0697 4.78417 78.251 4.95484C78.4323 5.11484 78.523 5.32817 78.523 5.59484C78.523 5.8615 78.4323 6.0855 78.251 6.26684C78.0697 6.4375 77.851 6.52284 77.595 6.52284ZM80.9071 16.2828V8.25084H82.1231L82.2191 9.40284C82.4751 8.97617 82.8165 8.6455 83.2431 8.41084C83.6698 8.17617 84.1445 8.05884 84.6671 8.05884C85.0831 8.05884 85.4618 8.1175 85.8031 8.23484C86.1445 8.3415 86.4431 8.51217 86.6991 8.74684C86.9551 8.97084 87.1631 9.25884 87.3231 9.61084C87.6005 9.12017 87.9791 8.7415 88.4591 8.47484C88.9498 8.1975 89.4725 8.05884 90.0271 8.05884C90.6458 8.05884 91.1845 8.18684 91.6431 8.44284C92.1125 8.68817 92.4751 9.06684 92.7311 9.57884C92.9871 10.0802 93.1151 10.7202 93.1151 11.4988V16.2828H91.7871V11.6428C91.7871 10.8322 91.6218 10.2242 91.2911 9.81884C90.9605 9.4135 90.4911 9.21084 89.8831 9.21084C89.4671 9.21084 89.0885 9.32284 88.7471 9.54684C88.4165 9.76017 88.1551 10.0748 87.9631 10.4908C87.7818 10.9068 87.6911 11.4188 87.6911 12.0268V16.2828H86.3471V11.6428C86.3471 10.8322 86.1818 10.2242 85.8511 9.81884C85.5205 9.4135 85.0511 9.21084 84.4431 9.21084C84.0378 9.21084 83.6645 9.32284 83.3231 9.54684C82.9925 9.76017 82.7311 10.0748 82.5391 10.4908C82.3471 10.9068 82.2511 11.4188 82.2511 12.0268V16.2828H80.9071ZM99.0248 16.4748C98.2781 16.4748 97.6114 16.2988 97.0248 15.9468C96.4381 15.5948 95.9741 15.1042 95.6328 14.4748C95.3021 13.8455 95.1368 13.1095 95.1368 12.2668C95.1368 11.4135 95.3021 10.6775 95.6328 10.0588C95.9634 9.4295 96.4221 8.93884 97.0088 8.58684C97.6061 8.23484 98.2888 8.05884 99.0568 8.05884C99.8461 8.05884 100.518 8.23484 101.073 8.58684C101.627 8.93884 102.049 9.3975 102.337 9.96284C102.635 10.5282 102.785 11.1522 102.785 11.8348C102.785 11.9415 102.785 12.0535 102.785 12.1708C102.785 12.2882 102.779 12.4215 102.769 12.5708H96.1448V11.5308H101.457C101.425 10.7948 101.179 10.2242 100.721 9.81884C100.273 9.40284 99.7074 9.19484 99.0248 9.19484C98.5768 9.19484 98.1554 9.3015 97.7608 9.51484C97.3661 9.7175 97.0461 10.0162 96.8008 10.4108C96.5661 10.8055 96.4488 11.3015 96.4488 11.8988V12.3468C96.4488 13.0082 96.5714 13.5628 96.8168 14.0108C97.0621 14.4482 97.3768 14.7788 97.7608 15.0028C98.1554 15.2268 98.5768 15.3388 99.0248 15.3388C99.5901 15.3388 100.054 15.2162 100.417 14.9708C100.79 14.7148 101.062 14.3682 101.233 13.9308H102.561C102.422 14.4215 102.193 14.8588 101.873 15.2428C101.553 15.6162 101.153 15.9148 100.673 16.1388C100.203 16.3628 99.6541 16.4748 99.0248 16.4748ZM112.585 16.2828C112.105 16.2828 111.689 16.2082 111.337 16.0588C110.985 15.9095 110.713 15.6588 110.521 15.3068C110.339 14.9442 110.249 14.4588 110.249 13.8508V9.38684H108.857V8.25084H110.249L110.424 6.31484H111.593V8.25084H113.945V9.38684H111.593V13.8508C111.593 14.3522 111.694 14.6935 111.897 14.8748C112.099 15.0455 112.457 15.1308 112.969 15.1308H113.833V16.2828H112.585ZM119.364 16.4748C118.617 16.4748 117.945 16.3042 117.348 15.9628C116.75 15.6108 116.276 15.1202 115.924 14.4908C115.582 13.8615 115.412 13.1202 115.412 12.2668C115.412 11.4135 115.588 10.6722 115.94 10.0428C116.292 9.4135 116.766 8.92817 117.364 8.58684C117.972 8.23484 118.649 8.05884 119.396 8.05884C120.153 8.05884 120.83 8.23484 121.428 8.58684C122.025 8.92817 122.494 9.4135 122.836 10.0428C123.177 10.6722 123.348 11.4135 123.348 12.2668C123.348 13.1202 123.172 13.8615 122.82 14.4908C122.478 15.1202 122.004 15.6108 121.396 15.9628C120.798 16.3042 120.121 16.4748 119.364 16.4748ZM119.364 15.3228C119.833 15.3228 120.265 15.2108 120.66 14.9868C121.054 14.7522 121.369 14.4108 121.604 13.9628C121.849 13.5042 121.972 12.9388 121.972 12.2668C121.972 11.5842 121.854 11.0188 121.62 10.5708C121.385 10.1228 121.07 9.78684 120.676 9.56284C120.281 9.32817 119.854 9.21084 119.396 9.21084C118.948 9.21084 118.521 9.32817 118.116 9.56284C117.721 9.78684 117.401 10.1228 117.156 10.5708C116.91 11.0188 116.788 11.5842 116.788 12.2668C116.788 12.9388 116.91 13.5042 117.156 13.9628C117.401 14.4108 117.716 14.7522 118.1 14.9868C118.494 15.2108 118.916 15.3228 119.364 15.3228ZM130.178 16.2828V5.08284H133.842C134.717 5.08284 135.437 5.23217 136.002 5.53084C136.567 5.81884 136.989 6.20817 137.266 6.69884C137.543 7.1895 137.682 7.74417 137.682 8.36284C137.682 8.9815 137.543 9.5415 137.266 10.0428C136.999 10.5335 136.583 10.9282 136.018 11.2268C135.453 11.5148 134.727 11.6588 133.842 11.6588H131.522V16.2828H130.178ZM131.522 10.5228H133.81C134.706 10.5228 135.346 10.3308 135.73 9.94684C136.114 9.55217 136.306 9.02417 136.306 8.36284C136.306 7.68017 136.114 7.15217 135.73 6.77884C135.346 6.39484 134.706 6.20284 133.81 6.20284H131.522V10.5228ZM142.811 16.4748C142.064 16.4748 141.392 16.3042 140.795 15.9628C140.197 15.6108 139.723 15.1202 139.371 14.4908C139.029 13.8615 138.859 13.1202 138.859 12.2668C138.859 11.4135 139.035 10.6722 139.387 10.0428C139.739 9.4135 140.213 8.92817 140.811 8.58684C141.419 8.23484 142.096 8.05884 142.843 8.05884C143.6 8.05884 144.277 8.23484 144.875 8.58684C145.472 8.92817 145.941 9.4135 146.283 10.0428C146.624 10.6722 146.795 11.4135 146.795 12.2668C146.795 13.1202 146.619 13.8615 146.267 14.4908C145.925 15.1202 145.451 15.6108 144.843 15.9628C144.245 16.3042 143.568 16.4748 142.811 16.4748ZM142.811 15.3228C143.28 15.3228 143.712 15.2108 144.107 14.9868C144.501 14.7522 144.816 14.4108 145.051 13.9628C145.296 13.5042 145.419 12.9388 145.419 12.2668C145.419 11.5842 145.301 11.0188 145.067 10.5708C144.832 10.1228 144.517 9.78684 144.123 9.56284C143.728 9.32817 143.301 9.21084 142.843 9.21084C142.395 9.21084 141.968 9.32817 141.563 9.56284C141.168 9.78684 140.848 10.1228 140.603 10.5708C140.357 11.0188 140.235 11.5842 140.235 12.2668C140.235 12.9388 140.357 13.5042 140.603 13.9628C140.848 14.4108 141.163 14.7522 141.547 14.9868C141.941 15.2108 142.363 15.3228 142.811 15.3228ZM152.019 16.4748C151.368 16.4748 150.792 16.3682 150.291 16.1548C149.79 15.9308 149.39 15.6162 149.091 15.2108C148.803 14.8055 148.622 14.3308 148.547 13.7868H149.923C149.987 14.0642 150.104 14.3255 150.275 14.5708C150.446 14.8055 150.675 14.9922 150.963 15.1308C151.262 15.2695 151.619 15.3388 152.035 15.3388C152.419 15.3388 152.734 15.2855 152.979 15.1788C153.224 15.0615 153.406 14.9068 153.523 14.7148C153.64 14.5228 153.699 14.3148 153.699 14.0908C153.699 13.7708 153.619 13.5255 153.459 13.3548C153.31 13.1842 153.086 13.0508 152.787 12.9548C152.488 12.8482 152.131 12.7575 151.715 12.6828C151.363 12.6188 151.016 12.5335 150.675 12.4268C150.344 12.3202 150.046 12.1815 149.779 12.0108C149.512 11.8402 149.299 11.6268 149.139 11.3708C148.979 11.1042 148.899 10.7895 148.899 10.4268C148.899 9.96817 149.016 9.56284 149.251 9.21084C149.496 8.84817 149.832 8.5655 150.259 8.36284C150.696 8.16017 151.214 8.05884 151.811 8.05884C152.664 8.05884 153.358 8.26684 153.891 8.68284C154.435 9.09884 154.75 9.7015 154.835 10.4908H153.507C153.464 10.0855 153.294 9.77084 152.995 9.54684C152.696 9.31217 152.296 9.19484 151.795 9.19484C151.294 9.19484 150.91 9.29617 150.643 9.49884C150.387 9.7015 150.259 9.96817 150.259 10.2988C150.259 10.5122 150.328 10.6988 150.467 10.8588C150.616 11.0188 150.835 11.1575 151.123 11.2748C151.411 11.3815 151.758 11.4775 152.163 11.5628C152.686 11.6588 153.166 11.7868 153.603 11.9468C154.04 12.1068 154.392 12.3415 154.659 12.6508C154.936 12.9602 155.075 13.4028 155.075 13.9788C155.086 14.4802 154.963 14.9175 154.707 15.2908C154.462 15.6642 154.11 15.9575 153.651 16.1708C153.192 16.3735 152.648 16.4748 152.019 16.4748ZM160.119 16.2828C159.639 16.2828 159.223 16.2082 158.871 16.0588C158.519 15.9095 158.247 15.6588 158.055 15.3068C157.874 14.9442 157.783 14.4588 157.783 13.8508V9.38684H156.391V8.25084H157.783L157.959 6.31484H159.127V8.25084H161.479V9.38684H159.127V13.8508C159.127 14.3522 159.228 14.6935 159.431 14.8748C159.634 15.0455 159.991 15.1308 160.503 15.1308H161.367V16.2828H160.119Z" fill="#90A3B4"/>
<g clip-path="url(#clip0_134_1400)">
<path d="M14.6667 10.6695V11.2828C14.6659 12.7204 14.2004 14.1192 13.3396 15.2707C12.4788 16.4221 11.2689 17.2644 9.89028 17.6721C8.51166 18.0797 7.03821 18.0307 5.68969 17.5325C4.34116 17.0343 3.18981 16.1135 2.40735 14.9075C1.62488 13.7015 1.25323 12.2748 1.34783 10.8403C1.44242 9.40583 1.99818 8.04034 2.93223 6.9475C3.86628 5.85467 5.12856 5.09304 6.53083 4.77622C7.9331 4.45939 9.40022 4.60435 10.7134 5.18945" stroke="#18B7E7" stroke-width="2" stroke-linecap="round" stroke-linejoin="round"/>
<path d="M14.6667 5.94946L8 12.6228L6 10.6228" stroke="#18B7E7" stroke-width="2" stroke-linecap="round" stroke-linejoin="round"/>
</g>
<defs>
<clipPath id="clip0_134_1400">
<rect width="16" height="16" fill="white" transform="translate(0 3.28284)"/>
</clipPath>
</defs>
</svg>
