<svg width="178" height="22" viewBox="0 0 178 22" fill="none" xmlns="http://www.w3.org/2000/svg">
<path d="M2.0692 16.1365V4.93647H4.1172V14.5365H9.0772V16.1365H2.0692ZM14.3303 16.3285C13.5303 16.3285 12.821 16.1578 12.2023 15.8165C11.5837 15.4751 11.0983 14.9951 10.7463 14.3765C10.3943 13.7578 10.2183 13.0431 10.2183 12.2325C10.2183 11.4111 10.389 10.6805 10.7303 10.0405C11.0823 9.40047 11.5623 8.90447 12.1703 8.55247C12.789 8.18981 13.5143 8.00847 14.3463 8.00847C15.125 8.00847 15.813 8.17914 16.4103 8.52047C17.0077 8.86181 17.4717 9.33114 17.8023 9.92847C18.1437 10.5151 18.3143 11.1711 18.3143 11.8965C18.3143 12.0138 18.309 12.1365 18.2983 12.2645C18.2983 12.3925 18.293 12.5258 18.2823 12.6645H12.2503C12.293 13.2831 12.5063 13.7685 12.8903 14.1205C13.285 14.4725 13.7597 14.6485 14.3143 14.6485C14.7303 14.6485 15.077 14.5578 15.3543 14.3765C15.6423 14.1845 15.8557 13.9391 15.9943 13.6405H18.0743C17.925 14.1418 17.6743 14.6005 17.3223 15.0165C16.981 15.4218 16.5543 15.7418 16.0423 15.9765C15.541 16.2111 14.9703 16.3285 14.3303 16.3285ZM14.3463 9.67247C13.845 9.67247 13.4023 9.81647 13.0183 10.1045C12.6343 10.3818 12.389 10.8085 12.2823 11.3845H16.2343C16.2023 10.8618 16.0103 10.4458 15.6583 10.1365C15.3063 9.82714 14.869 9.67247 14.3463 9.67247ZM22.7728 16.3285C22.0902 16.3285 21.5302 16.2218 21.0928 16.0085C20.6555 15.7845 20.3302 15.4911 20.1168 15.1285C19.9035 14.7658 19.7968 14.3658 19.7968 13.9285C19.7968 13.1925 20.0848 12.5951 20.6608 12.1365C21.2368 11.6778 22.1008 11.4485 23.2528 11.4485H25.2688V11.2565C25.2688 10.7125 25.1142 10.3125 24.8048 10.0565C24.4955 9.80047 24.1115 9.67247 23.6528 9.67247C23.2368 9.67247 22.8742 9.77381 22.5648 9.97647C22.2555 10.1685 22.0635 10.4565 21.9888 10.8405H19.9888C20.0422 10.2645 20.2342 9.76314 20.5648 9.33647C20.9062 8.90981 21.3435 8.58447 21.8768 8.36047C22.4102 8.12581 23.0075 8.00847 23.6688 8.00847C24.7995 8.00847 25.6902 8.29114 26.3408 8.85647C26.9915 9.42181 27.3168 10.2218 27.3168 11.2565V16.1365H25.5728L25.3808 14.8565C25.1462 15.2831 24.8155 15.6351 24.3888 15.9125C23.9728 16.1898 23.4342 16.3285 22.7728 16.3285ZM23.2368 14.7285C23.8235 14.7285 24.2768 14.5365 24.5968 14.1525C24.9275 13.7685 25.1355 13.2938 25.2208 12.7285H23.4768C22.9328 12.7285 22.5435 12.8298 22.3088 13.0325C22.0742 13.2245 21.9568 13.4645 21.9568 13.7525C21.9568 14.0618 22.0742 14.3018 22.3088 14.4725C22.5435 14.6431 22.8528 14.7285 23.2368 14.7285ZM29.2712 16.1365V8.20047H31.0952L31.2872 9.68847C31.5752 9.17647 31.9645 8.77114 32.4552 8.47247C32.9565 8.16314 33.5432 8.00847 34.2152 8.00847V10.1685H33.6392C33.1912 10.1685 32.7912 10.2378 32.4392 10.3765C32.0872 10.5151 31.8099 10.7551 31.6072 11.0965C31.4152 11.4378 31.3192 11.9125 31.3192 12.5205V16.1365H29.2712ZM35.615 16.1365V8.20047H37.423L37.583 9.54447C37.8283 9.07514 38.1803 8.70181 38.639 8.42447C39.1083 8.14714 39.6576 8.00847 40.287 8.00847C41.2683 8.00847 42.031 8.31781 42.575 8.93647C43.119 9.55514 43.391 10.4618 43.391 11.6565V16.1365H41.343V11.8485C41.343 11.1658 41.2043 10.6431 40.927 10.2805C40.6496 9.91781 40.2176 9.73647 39.631 9.73647C39.055 9.73647 38.5803 9.93914 38.207 10.3445C37.8443 10.7498 37.663 11.3151 37.663 12.0405V16.1365H35.615ZM51.8978 16.3285C51.2152 16.3285 50.6552 16.2218 50.2178 16.0085C49.7805 15.7845 49.4552 15.4911 49.2418 15.1285C49.0285 14.7658 48.9218 14.3658 48.9218 13.9285C48.9218 13.1925 49.2098 12.5951 49.7858 12.1365C50.3618 11.6778 51.2258 11.4485 52.3778 11.4485H54.3938V11.2565C54.3938 10.7125 54.2392 10.3125 53.9298 10.0565C53.6205 9.80047 53.2365 9.67247 52.7778 9.67247C52.3618 9.67247 51.9992 9.77381 51.6898 9.97647C51.3805 10.1685 51.1885 10.4565 51.1138 10.8405H49.1138C49.1672 10.2645 49.3592 9.76314 49.6898 9.33647C50.0312 8.90981 50.4685 8.58447 51.0018 8.36047C51.5352 8.12581 52.1325 8.00847 52.7938 8.00847C53.9245 8.00847 54.8152 8.29114 55.4658 8.85647C56.1165 9.42181 56.4418 10.2218 56.4418 11.2565V16.1365H54.6978L54.5058 14.8565C54.2712 15.2831 53.9405 15.6351 53.5138 15.9125C53.0978 16.1898 52.5592 16.3285 51.8978 16.3285ZM52.3618 14.7285C52.9485 14.7285 53.4018 14.5365 53.7218 14.1525C54.0525 13.7685 54.2605 13.2938 54.3458 12.7285H52.6018C52.0578 12.7285 51.6685 12.8298 51.4338 13.0325C51.1992 13.2245 51.0818 13.4645 51.0818 13.7525C51.0818 14.0618 51.1992 14.3018 51.4338 14.4725C51.6685 14.6431 51.9778 14.7285 52.3618 14.7285ZM63.1002 16.3285C62.5029 16.3285 61.9802 16.2165 61.5322 15.9925C61.0842 15.7685 60.7215 15.4538 60.4442 15.0485L60.2202 16.1365H58.3962V4.61647H60.4442V9.33647C60.7002 8.98447 61.0362 8.67514 61.4522 8.40847C61.8789 8.14181 62.4282 8.00847 63.1002 8.00847C63.8469 8.00847 64.5135 8.18981 65.1002 8.55247C65.6869 8.91514 66.1509 9.41114 66.4922 10.0405C66.8335 10.6698 67.0042 11.3845 67.0042 12.1845C67.0042 12.9845 66.8335 13.6991 66.4922 14.3285C66.1509 14.9471 65.6869 15.4378 65.1002 15.8005C64.5135 16.1525 63.8469 16.3285 63.1002 16.3285ZM62.6682 14.5365C63.3189 14.5365 63.8575 14.3178 64.2842 13.8805C64.7109 13.4431 64.9242 12.8778 64.9242 12.1845C64.9242 11.4911 64.7109 10.9205 64.2842 10.4725C63.8575 10.0245 63.3189 9.80047 62.6682 9.80047C62.0069 9.80047 61.4629 10.0245 61.0362 10.4725C60.6202 10.9098 60.4122 11.4751 60.4122 12.1685C60.4122 12.8618 60.6202 13.4325 61.0362 13.8805C61.4629 14.3178 62.0069 14.5365 62.6682 14.5365ZM72.6417 16.3285C71.8737 16.3285 71.1804 16.1525 70.5617 15.8005C69.9537 15.4485 69.4684 14.9631 69.1057 14.3445C68.7537 13.7151 68.5777 12.9898 68.5777 12.1685C68.5777 11.3471 68.759 10.6271 69.1217 10.0085C69.4844 9.37914 69.9697 8.88847 70.5777 8.53647C71.1964 8.18447 71.8897 8.00847 72.6577 8.00847C73.415 8.00847 74.0977 8.18447 74.7057 8.53647C75.3244 8.88847 75.8097 9.37914 76.1617 10.0085C76.5244 10.6271 76.7057 11.3471 76.7057 12.1685C76.7057 12.9898 76.5244 13.7151 76.1617 14.3445C75.8097 14.9631 75.3244 15.4485 74.7057 15.8005C74.087 16.1525 73.399 16.3285 72.6417 16.3285ZM72.6417 14.5525C73.175 14.5525 73.639 14.3551 74.0337 13.9605C74.4284 13.5551 74.6257 12.9578 74.6257 12.1685C74.6257 11.3791 74.4284 10.7871 74.0337 10.3925C73.639 9.98714 73.1804 9.78447 72.6577 9.78447C72.1137 9.78447 71.6444 9.98714 71.2497 10.3925C70.8657 10.7871 70.6737 11.3791 70.6737 12.1685C70.6737 12.9578 70.8657 13.5551 71.2497 13.9605C71.6444 14.3551 72.1084 14.5525 72.6417 14.5525ZM81.5128 16.3285C80.5208 16.3285 79.7528 16.0191 79.2088 15.4005C78.6755 14.7818 78.4088 13.8751 78.4088 12.6805V8.20047H80.4408V12.4885C80.4408 13.1711 80.5795 13.6938 80.8568 14.0565C81.1342 14.4191 81.5715 14.6005 82.1688 14.6005C82.7342 14.6005 83.1982 14.3978 83.5608 13.9925C83.9342 13.5871 84.1208 13.0218 84.1208 12.2965V8.20047H86.1688V16.1365H84.3608L84.2008 14.7925C83.9555 15.2618 83.5982 15.6351 83.1288 15.9125C82.6702 16.1898 82.1315 16.3285 81.5128 16.3285ZM91.8072 16.1365C90.9752 16.1365 90.3085 15.9338 89.8072 15.5285C89.3059 15.1231 89.0552 14.4031 89.0552 13.3685V9.91247H87.6952V8.20047H89.0552L89.2952 6.07247H91.1032V8.20047H93.2472V9.91247H91.1032V13.3845C91.1032 13.7685 91.1832 14.0351 91.3432 14.1845C91.5139 14.3231 91.8019 14.3925 92.2072 14.3925H93.1992V16.1365H91.8072ZM102.178 13.7685C101.794 13.7685 101.437 13.7258 101.106 13.6405L100.514 14.2325C100.695 14.3285 100.941 14.4085 101.25 14.4725C101.559 14.5365 102.061 14.6005 102.754 14.6645C103.81 14.7605 104.578 15.0111 105.058 15.4165C105.538 15.8218 105.778 16.3818 105.778 17.0965C105.778 17.5658 105.65 18.0085 105.394 18.4245C105.138 18.8511 104.743 19.1925 104.21 19.4485C103.677 19.7151 102.994 19.8485 102.162 19.8485C101.031 19.8485 100.119 19.6351 99.4261 19.2085C98.7327 18.7925 98.3861 18.1631 98.3861 17.3205C98.3861 16.6058 98.7327 15.9871 99.4261 15.4645C99.2127 15.3685 99.0261 15.2671 98.8661 15.1605C98.7167 15.0538 98.5834 14.9418 98.4661 14.8245V14.4565L99.8581 12.9845C99.2394 12.4405 98.9301 11.7418 98.9301 10.8885C98.9301 10.3551 99.0581 9.86981 99.3141 9.43247C99.5807 8.99514 99.9541 8.64847 100.434 8.39247C100.914 8.13647 101.495 8.00847 102.178 8.00847C102.626 8.00847 103.042 8.07247 103.426 8.20047H106.434V9.44847L105.074 9.54447C105.287 9.94981 105.394 10.3978 105.394 10.8885C105.394 11.4218 105.266 11.9071 105.01 12.3445C104.754 12.7818 104.381 13.1285 103.89 13.3845C103.41 13.6405 102.839 13.7685 102.178 13.7685ZM102.178 12.2005C102.594 12.2005 102.935 12.0885 103.202 11.8645C103.479 11.6405 103.618 11.3205 103.618 10.9045C103.618 10.4885 103.479 10.1685 103.202 9.94447C102.935 9.72047 102.594 9.60847 102.178 9.60847C101.741 9.60847 101.389 9.72047 101.122 9.94447C100.855 10.1685 100.722 10.4885 100.722 10.9045C100.722 11.3205 100.855 11.6405 101.122 11.8645C101.389 12.0885 101.741 12.2005 102.178 12.2005ZM100.258 17.1125C100.258 17.5071 100.439 17.8005 100.802 17.9925C101.175 18.1951 101.629 18.2965 102.162 18.2965C102.674 18.2965 103.09 18.1898 103.41 17.9765C103.73 17.7738 103.89 17.4965 103.89 17.1445C103.89 16.8565 103.783 16.6165 103.57 16.4245C103.367 16.2325 102.957 16.1151 102.338 16.0725C101.901 16.0405 101.495 15.9925 101.122 15.9285C100.813 16.0991 100.589 16.2858 100.45 16.4885C100.322 16.6911 100.258 16.8991 100.258 17.1125ZM107.927 16.1365V8.20047H109.751L109.943 9.68847C110.231 9.17647 110.621 8.77114 111.111 8.47247C111.613 8.16314 112.199 8.00847 112.871 8.00847V10.1685H112.295C111.847 10.1685 111.447 10.2378 111.095 10.3765C110.743 10.5151 110.466 10.7551 110.263 11.0965C110.071 11.4378 109.975 11.9125 109.975 12.5205V16.1365H107.927ZM117.007 16.3285C116.325 16.3285 115.765 16.2218 115.327 16.0085C114.89 15.7845 114.565 15.4911 114.351 15.1285C114.138 14.7658 114.031 14.3658 114.031 13.9285C114.031 13.1925 114.319 12.5951 114.895 12.1365C115.471 11.6778 116.335 11.4485 117.487 11.4485H119.503V11.2565C119.503 10.7125 119.349 10.3125 119.039 10.0565C118.73 9.80047 118.346 9.67247 117.887 9.67247C117.471 9.67247 117.109 9.77381 116.799 9.97647C116.49 10.1685 116.298 10.4565 116.223 10.8405H114.223C114.277 10.2645 114.469 9.76314 114.799 9.33647C115.141 8.90981 115.578 8.58447 116.111 8.36047C116.645 8.12581 117.242 8.00847 117.903 8.00847C119.034 8.00847 119.925 8.29114 120.575 8.85647C121.226 9.42181 121.551 10.2218 121.551 11.2565V16.1365H119.807L119.615 14.8565C119.381 15.2831 119.05 15.6351 118.623 15.9125C118.207 16.1898 117.669 16.3285 117.007 16.3285ZM117.471 14.7285C118.058 14.7285 118.511 14.5365 118.831 14.1525C119.162 13.7685 119.37 13.2938 119.455 12.7285H117.711C117.167 12.7285 116.778 12.8298 116.543 13.0325C116.309 13.2245 116.191 13.4645 116.191 13.7525C116.191 14.0618 116.309 14.3018 116.543 14.4725C116.778 14.6431 117.087 14.7285 117.471 14.7285ZM123.506 19.6565V8.20047H125.33L125.554 9.33647C125.81 8.98447 126.146 8.67514 126.562 8.40847C126.988 8.14181 127.538 8.00847 128.21 8.00847C128.956 8.00847 129.623 8.18981 130.21 8.55247C130.796 8.91514 131.26 9.41114 131.602 10.0405C131.943 10.6698 132.114 11.3845 132.114 12.1845C132.114 12.9845 131.943 13.6991 131.602 14.3285C131.26 14.9471 130.796 15.4378 130.21 15.8005C129.623 16.1525 128.956 16.3285 128.21 16.3285C127.612 16.3285 127.09 16.2165 126.642 15.9925C126.194 15.7685 125.831 15.4538 125.554 15.0485V19.6565H123.506ZM127.778 14.5365C128.428 14.5365 128.967 14.3178 129.394 13.8805C129.82 13.4431 130.034 12.8778 130.034 12.1845C130.034 11.4911 129.82 10.9205 129.394 10.4725C128.967 10.0245 128.428 9.80047 127.778 9.80047C127.116 9.80047 126.572 10.0245 126.146 10.4725C125.73 10.9098 125.522 11.4751 125.522 12.1685C125.522 12.8618 125.73 13.4325 126.146 13.8805C126.572 14.3178 127.116 14.5365 127.778 14.5365ZM133.943 16.1365V4.61647H135.991V9.41647C136.258 8.97914 136.615 8.63781 137.063 8.39247C137.522 8.13647 138.044 8.00847 138.631 8.00847C139.612 8.00847 140.37 8.31781 140.903 8.93647C141.447 9.55514 141.719 10.4618 141.719 11.6565V16.1365H139.687V11.8485C139.687 11.1658 139.548 10.6431 139.271 10.2805C139.004 9.91781 138.578 9.73647 137.991 9.73647C137.415 9.73647 136.935 9.93914 136.551 10.3445C136.178 10.7498 135.991 11.3151 135.991 12.0405V16.1365H133.943ZM146.957 16.3285C146.253 16.3285 145.635 16.2165 145.101 15.9925C144.568 15.7578 144.141 15.4378 143.821 15.0325C143.501 14.6271 143.309 14.1578 143.245 13.6245H145.309C145.373 13.9338 145.544 14.2005 145.821 14.4245C146.109 14.6378 146.477 14.7445 146.925 14.7445C147.373 14.7445 147.699 14.6538 147.901 14.4725C148.115 14.2911 148.221 14.0831 148.221 13.8485C148.221 13.5071 148.072 13.2778 147.773 13.1605C147.475 13.0325 147.059 12.9098 146.525 12.7925C146.184 12.7178 145.837 12.6271 145.485 12.5205C145.133 12.4138 144.808 12.2805 144.509 12.1205C144.221 11.9498 143.987 11.7365 143.805 11.4805C143.624 11.2138 143.533 10.8885 143.533 10.5045C143.533 9.80047 143.811 9.20847 144.365 8.72847C144.931 8.24847 145.72 8.00847 146.733 8.00847C147.672 8.00847 148.419 8.22714 148.973 8.66447C149.539 9.10181 149.875 9.70447 149.981 10.4725H148.045C147.928 9.88581 147.485 9.59247 146.717 9.59247C146.333 9.59247 146.035 9.66714 145.821 9.81647C145.619 9.96581 145.517 10.1525 145.517 10.3765C145.517 10.6111 145.672 10.7978 145.981 10.9365C146.291 11.0751 146.701 11.2031 147.213 11.3205C147.768 11.4485 148.275 11.5925 148.733 11.7525C149.203 11.9018 149.576 12.1311 149.853 12.4405C150.131 12.7391 150.269 13.1711 150.269 13.7365C150.28 14.2271 150.152 14.6698 149.885 15.0645C149.619 15.4591 149.235 15.7685 148.733 15.9925C148.232 16.2165 147.64 16.3285 146.957 16.3285Z" fill="#04AADD"/>
<path d="M177.512 12.6668C177.804 12.3739 177.804 11.899 177.512 11.6061L172.739 6.83317C172.446 6.54028 171.971 6.54028 171.678 6.83317C171.385 7.12607 171.385 7.60094 171.678 7.89383L175.921 12.1365L171.678 16.3791C171.385 16.672 171.385 17.1469 171.678 17.4398C171.971 17.7327 172.446 17.7327 172.739 17.4398L177.512 12.6668ZM161.981 12.8865L176.981 12.8865L176.981 11.3865L161.981 11.3865L161.981 12.8865Z" fill="#04AADD"/>
</svg>
