<svg width="94" height="22" viewBox="0 0 94 22" fill="none" xmlns="http://www.w3.org/2000/svg">
<path d="M33.232 16.4748C32.464 16.4748 31.7653 16.3202 31.136 16.0108C30.5173 15.7015 30.0213 15.2322 29.648 14.6028C29.2747 13.9628 29.088 13.1468 29.088 12.1548V5.08284H30.432V12.1708C30.432 12.8962 30.5493 13.4882 30.784 13.9468C31.0293 14.4055 31.3653 14.7415 31.792 14.9548C32.2187 15.1682 32.7093 15.2748 33.264 15.2748C33.8293 15.2748 34.32 15.1682 34.736 14.9548C35.152 14.7415 35.4773 14.4055 35.712 13.9468C35.9467 13.4882 36.064 12.8962 36.064 12.1708V5.08284H37.408V12.1548C37.408 13.1468 37.2213 13.9628 36.848 14.6028C36.4747 15.2322 35.9733 15.7015 35.344 16.0108C34.7147 16.3202 34.0107 16.4748 33.232 16.4748ZM42.944 16.4748C42.2933 16.4748 41.7173 16.3682 41.216 16.1548C40.7147 15.9308 40.3147 15.6162 40.016 15.2108C39.728 14.8055 39.5467 14.3308 39.472 13.7868H40.848C40.912 14.0642 41.0293 14.3255 41.2 14.5708C41.3707 14.8055 41.6 14.9922 41.888 15.1308C42.1867 15.2695 42.544 15.3388 42.96 15.3388C43.344 15.3388 43.6587 15.2855 43.904 15.1788C44.1493 15.0615 44.3307 14.9068 44.448 14.7148C44.5653 14.5228 44.624 14.3148 44.624 14.0908C44.624 13.7708 44.544 13.5255 44.384 13.3548C44.2347 13.1842 44.0107 13.0508 43.712 12.9548C43.4133 12.8482 43.056 12.7575 42.64 12.6828C42.288 12.6188 41.9413 12.5335 41.6 12.4268C41.2693 12.3202 40.9707 12.1815 40.704 12.0108C40.4373 11.8402 40.224 11.6268 40.064 11.3708C39.904 11.1042 39.824 10.7895 39.824 10.4268C39.824 9.96817 39.9413 9.56284 40.176 9.21084C40.4213 8.84817 40.7573 8.5655 41.184 8.36284C41.6213 8.16017 42.1387 8.05884 42.736 8.05884C43.5893 8.05884 44.2827 8.26684 44.816 8.68284C45.36 9.09884 45.6747 9.7015 45.76 10.4908H44.432C44.3893 10.0855 44.2187 9.77084 43.92 9.54684C43.6213 9.31217 43.2213 9.19484 42.72 9.19484C42.2187 9.19484 41.8347 9.29617 41.568 9.49884C41.312 9.7015 41.184 9.96817 41.184 10.2988C41.184 10.5122 41.2533 10.6988 41.392 10.8588C41.5413 11.0188 41.76 11.1575 42.048 11.2748C42.336 11.3815 42.6827 11.4775 43.088 11.5628C43.6107 11.6588 44.0907 11.7868 44.528 11.9468C44.9653 12.1068 45.3173 12.3415 45.584 12.6508C45.8613 12.9602 46 13.4028 46 13.9788C46.0107 14.4802 45.888 14.9175 45.632 15.2908C45.3867 15.6642 45.0347 15.9575 44.576 16.1708C44.1173 16.3735 43.5733 16.4748 42.944 16.4748ZM51.7873 16.4748C51.0406 16.4748 50.3739 16.2988 49.7873 15.9468C49.2006 15.5948 48.7366 15.1042 48.3953 14.4748C48.0646 13.8455 47.8993 13.1095 47.8993 12.2668C47.8993 11.4135 48.0646 10.6775 48.3953 10.0588C48.7259 9.4295 49.1846 8.93884 49.7713 8.58684C50.3686 8.23484 51.0513 8.05884 51.8193 8.05884C52.6086 8.05884 53.2806 8.23484 53.8353 8.58684C54.3899 8.93884 54.8113 9.3975 55.0993 9.96284C55.3979 10.5282 55.5473 11.1522 55.5473 11.8348C55.5473 11.9415 55.5473 12.0535 55.5473 12.1708C55.5473 12.2882 55.5419 12.4215 55.5313 12.5708H48.9073V11.5308H54.2193C54.1873 10.7948 53.9419 10.2242 53.4833 9.81884C53.0353 9.40284 52.4699 9.19484 51.7873 9.19484C51.3393 9.19484 50.9179 9.3015 50.5233 9.51484C50.1286 9.7175 49.8086 10.0162 49.5633 10.4108C49.3286 10.8055 49.2113 11.3015 49.2113 11.8988V12.3468C49.2113 13.0082 49.3339 13.5628 49.5793 14.0108C49.8246 14.4482 50.1393 14.7788 50.5233 15.0028C50.9179 15.2268 51.3393 15.3388 51.7873 15.3388C52.3526 15.3388 52.8166 15.2162 53.1793 14.9708C53.5526 14.7148 53.8246 14.3682 53.9953 13.9308H55.3233C55.1846 14.4215 54.9553 14.8588 54.6353 15.2428C54.3153 15.6162 53.9153 15.9148 53.4353 16.1388C52.9659 16.3628 52.4166 16.4748 51.7873 16.4748ZM57.629 16.2828V8.25084H58.845L58.957 9.78684C59.1383 9.42417 59.3677 9.11484 59.645 8.85884C59.933 8.60284 60.2743 8.4055 60.669 8.26684C61.0637 8.12817 61.5117 8.05884 62.013 8.05884V9.46684H61.549C61.2077 9.46684 60.8823 9.51484 60.573 9.61084C60.2637 9.69617 59.9863 9.84017 59.741 10.0428C59.5063 10.2348 59.3197 10.5068 59.181 10.8588C59.0423 11.2108 58.973 11.6428 58.973 12.1548V16.2828H57.629ZM71.0736 16.2828V6.18684H67.7296V5.08284H75.7616V6.18684H72.4176V16.2828H71.0736ZM79.0909 16.4748C78.4402 16.4748 77.8962 16.3628 77.4589 16.1388C77.0215 15.9042 76.6962 15.6002 76.4829 15.2268C76.2695 14.8428 76.1629 14.4322 76.1629 13.9948C76.1629 13.4508 76.3015 12.9922 76.5789 12.6188C76.8669 12.2348 77.2669 11.9468 77.7789 11.7548C78.3015 11.5522 78.9095 11.4508 79.6029 11.4508H81.7469C81.7469 10.9495 81.6669 10.5335 81.5069 10.2028C81.3575 9.87217 81.1335 9.6215 80.8349 9.45084C80.5362 9.28017 80.1735 9.19484 79.7469 9.19484C79.2349 9.19484 78.7922 9.32284 78.4189 9.57884C78.0455 9.83484 77.8162 10.2135 77.7309 10.7148H76.3549C76.4189 10.1388 76.6109 9.65884 76.9309 9.27484C77.2615 8.88017 77.6775 8.5815 78.1789 8.37884C78.6802 8.1655 79.2029 8.05884 79.7469 8.05884C80.4935 8.05884 81.1122 8.1975 81.6029 8.47484C82.0935 8.7415 82.4615 9.12017 82.7069 9.61084C82.9629 10.0908 83.0909 10.6562 83.0909 11.3068V16.2828H81.8909L81.8109 14.8588C81.7042 15.0828 81.5655 15.2962 81.3949 15.4988C81.2349 15.6908 81.0429 15.8615 80.8189 16.0108C80.6055 16.1495 80.3549 16.2615 80.0669 16.3468C79.7789 16.4322 79.4535 16.4748 79.0909 16.4748ZM79.2989 15.3388C79.6722 15.3388 80.0082 15.2642 80.3069 15.1148C80.6162 14.9548 80.8775 14.7415 81.0909 14.4748C81.3042 14.2082 81.4642 13.9095 81.5709 13.5788C81.6882 13.2375 81.7469 12.8908 81.7469 12.5388V12.4908H79.7149C79.2029 12.4908 78.7869 12.5548 78.4669 12.6828C78.1469 12.8002 77.9175 12.9708 77.7789 13.1948C77.6402 13.4082 77.5709 13.6535 77.5709 13.9308C77.5709 14.2188 77.6349 14.4695 77.7629 14.6828C77.9015 14.8855 78.0989 15.0455 78.3549 15.1628C78.6109 15.2802 78.9255 15.3388 79.2989 15.3388ZM88.638 19.9948C87.9127 19.9948 87.2727 19.8988 86.718 19.7068C86.1633 19.5255 85.7313 19.2428 85.422 18.8588C85.1127 18.4748 84.958 18.0002 84.958 17.4348C84.958 17.1895 85.006 16.9282 85.102 16.6508C85.2087 16.3842 85.3847 16.1175 85.63 15.8508C85.886 15.5842 86.2433 15.3442 86.702 15.1308L87.614 15.6748C87.0593 15.9095 86.6967 16.1762 86.526 16.4748C86.3553 16.7735 86.27 17.0508 86.27 17.3068C86.27 17.6588 86.3713 17.9522 86.574 18.1868C86.7767 18.4215 87.054 18.5975 87.406 18.7148C87.7687 18.8322 88.1793 18.8908 88.638 18.8908C89.0967 18.8908 89.4913 18.8215 89.822 18.6828C90.1527 18.5548 90.4087 18.3735 90.59 18.1388C90.7713 17.9148 90.862 17.6428 90.862 17.3228C90.862 16.9602 90.7233 16.6508 90.446 16.3948C90.1687 16.1495 89.646 16.0055 88.878 15.9628C88.238 15.9202 87.7047 15.8615 87.278 15.7868C86.862 15.7122 86.5153 15.6268 86.238 15.5308C85.9607 15.4242 85.726 15.3068 85.534 15.1788C85.3527 15.0508 85.1873 14.9175 85.038 14.7788V14.4108L86.59 12.8588L87.758 13.2748L86.158 14.7308L86.366 14.1708C86.4833 14.2562 86.5953 14.3362 86.702 14.4108C86.8087 14.4748 86.9527 14.5335 87.134 14.5868C87.3153 14.6402 87.566 14.6935 87.886 14.7468C88.206 14.7895 88.638 14.8322 89.182 14.8748C89.9073 14.9282 90.4887 15.0562 90.926 15.2588C91.374 15.4615 91.694 15.7335 91.886 16.0748C92.0887 16.4162 92.19 16.8162 92.19 17.2748C92.19 17.7335 92.062 18.1655 91.806 18.5708C91.5607 18.9868 91.1767 19.3282 90.654 19.5948C90.1313 19.8615 89.4593 19.9948 88.638 19.9948ZM88.622 13.7548C87.95 13.7548 87.3793 13.6322 86.91 13.3868C86.4407 13.1308 86.0833 12.7895 85.838 12.3628C85.5927 11.9255 85.47 11.4402 85.47 10.9068C85.47 10.3735 85.5927 9.8935 85.838 9.46684C86.0833 9.04017 86.4407 8.69884 86.91 8.44284C87.3793 8.18684 87.95 8.05884 88.622 8.05884C89.3047 8.05884 89.8807 8.18684 90.35 8.44284C90.8193 8.69884 91.1767 9.04017 91.422 9.46684C91.6673 9.8935 91.79 10.3735 91.79 10.9068C91.79 11.4402 91.6673 11.9255 91.422 12.3628C91.1767 12.7895 90.8193 13.1308 90.35 13.3868C89.8807 13.6322 89.3047 13.7548 88.622 13.7548ZM88.622 12.6508C89.198 12.6508 89.6513 12.5068 89.982 12.2188C90.3233 11.9202 90.494 11.4828 90.494 10.9068C90.494 10.3522 90.3233 9.9255 89.982 9.62684C89.6513 9.32817 89.198 9.17884 88.622 9.17884C88.0567 9.17884 87.6033 9.32817 87.262 9.62684C86.9207 9.9255 86.75 10.3522 86.75 10.9068C86.75 11.4828 86.9207 11.9202 87.262 12.2188C87.6033 12.5068 88.0567 12.6508 88.622 12.6508ZM89.934 9.38684L89.534 8.25084H92.83V9.25884L89.934 9.38684Z" fill="#90A3B4"/>
<g clip-path="url(#clip0_134_1407)">
<path d="M14.6667 10.6695V11.2828C14.6659 12.7204 14.2004 14.1192 13.3396 15.2707C12.4788 16.4221 11.2689 17.2644 9.89028 17.6721C8.51166 18.0797 7.03821 18.0307 5.68969 17.5325C4.34116 17.0343 3.18981 16.1135 2.40735 14.9075C1.62488 13.7015 1.25323 12.2748 1.34783 10.8403C1.44242 9.40583 1.99818 8.04034 2.93223 6.9475C3.86628 5.85467 5.12856 5.09304 6.53083 4.77622C7.9331 4.45939 9.40022 4.60435 10.7134 5.18945" stroke="#18B7E7" stroke-width="2" stroke-linecap="round" stroke-linejoin="round"/>
<path d="M14.6667 5.94946L8 12.6228L6 10.6228" stroke="#18B7E7" stroke-width="2" stroke-linecap="round" stroke-linejoin="round"/>
</g>
<defs>
<clipPath id="clip0_134_1407">
<rect width="16" height="16" fill="white" transform="translate(0 3.28284)"/>
</clipPath>
</defs>
</svg>
