<svg width="444" height="286" viewBox="0 0 444 286" fill="none" xmlns="http://www.w3.org/2000/svg">
<g filter="url(#filter0_f_137_222)">
<rect x="120" y="120" width="204" height="46" rx="4" fill="#099AB4"/>
</g>
<rect x="120" y="75" width="204" height="57" rx="4" fill="white"/>
<path d="M158.403 109.192C157.347 109.192 156.424 108.952 155.635 108.472C154.846 107.992 154.232 107.32 153.795 106.456C153.358 105.592 153.139 104.584 153.139 103.432C153.139 102.291 153.363 101.283 153.811 100.408C154.259 99.5333 154.894 98.8507 155.715 98.36C156.547 97.8587 157.528 97.608 158.659 97.608C159.939 97.608 161.006 97.9173 161.859 98.536C162.712 99.1547 163.267 100.008 163.523 101.096H161.603C161.432 100.499 161.096 100.029 160.595 99.688C160.094 99.3467 159.448 99.176 158.659 99.176C157.486 99.176 156.563 99.5547 155.891 100.312C155.219 101.069 154.883 102.115 154.883 103.448C154.883 104.781 155.214 105.821 155.875 106.568C156.536 107.315 157.416 107.688 158.515 107.688C159.624 107.688 160.456 107.373 161.011 106.744C161.576 106.115 161.907 105.277 162.003 104.232H158.963V102.92H163.715V109H162.163L162.019 107.352C161.646 107.939 161.176 108.392 160.611 108.712C160.046 109.032 159.31 109.192 158.403 109.192ZM169.721 109.192C168.943 109.192 168.249 109.021 167.641 108.68C167.044 108.328 166.575 107.843 166.233 107.224C165.892 106.605 165.721 105.885 165.721 105.064C165.721 104.232 165.887 103.501 166.217 102.872C166.559 102.243 167.028 101.752 167.625 101.4C168.233 101.048 168.937 100.872 169.737 100.872C170.516 100.872 171.193 101.048 171.769 101.4C172.345 101.741 172.793 102.2 173.113 102.776C173.433 103.352 173.593 103.987 173.593 104.68C173.593 104.787 173.588 104.904 173.577 105.032C173.577 105.149 173.572 105.283 173.561 105.432H167.385C167.439 106.2 167.689 106.787 168.137 107.192C168.596 107.587 169.124 107.784 169.721 107.784C170.201 107.784 170.601 107.677 170.921 107.464C171.252 107.24 171.497 106.941 171.657 106.568H173.353C173.14 107.315 172.713 107.939 172.073 108.44C171.444 108.941 170.66 109.192 169.721 109.192ZM169.721 102.264C169.156 102.264 168.655 102.435 168.217 102.776C167.78 103.107 167.513 103.608 167.417 104.28H171.897C171.865 103.661 171.647 103.171 171.241 102.808C170.836 102.445 170.329 102.264 169.721 102.264ZM178.778 109C177.999 109 177.381 108.813 176.922 108.44C176.463 108.056 176.234 107.379 176.234 106.408V102.488H174.874V101.064H176.234L176.442 99.048H177.93V101.064H180.17V102.488H177.93V106.408C177.93 106.845 178.021 107.149 178.202 107.32C178.394 107.48 178.719 107.56 179.178 107.56H180.09V109H178.778ZM187.478 112.52L189.382 108.344H188.918L185.782 101.064H187.622L190.054 106.936L192.598 101.064H194.39L189.27 112.52H187.478ZM199.078 109.192C198.32 109.192 197.638 109.021 197.03 108.68C196.432 108.328 195.958 107.843 195.606 107.224C195.254 106.595 195.078 105.864 195.078 105.032C195.078 104.2 195.254 103.475 195.606 102.856C195.968 102.227 196.454 101.741 197.062 101.4C197.67 101.048 198.347 100.872 199.094 100.872C199.851 100.872 200.528 101.048 201.126 101.4C201.734 101.741 202.214 102.227 202.566 102.856C202.928 103.475 203.11 104.2 203.11 105.032C203.11 105.864 202.928 106.595 202.566 107.224C202.214 107.843 201.734 108.328 201.126 108.68C200.518 109.021 199.835 109.192 199.078 109.192ZM199.078 107.736C199.483 107.736 199.856 107.635 200.198 107.432C200.55 107.229 200.832 106.931 201.046 106.536C201.259 106.131 201.366 105.629 201.366 105.032C201.366 104.435 201.259 103.939 201.046 103.544C200.843 103.139 200.566 102.835 200.214 102.632C199.872 102.429 199.499 102.328 199.094 102.328C198.688 102.328 198.31 102.429 197.958 102.632C197.616 102.835 197.339 103.139 197.126 103.544C196.912 103.939 196.806 104.435 196.806 105.032C196.806 105.629 196.912 106.131 197.126 106.536C197.339 106.931 197.616 107.229 197.958 107.432C198.299 107.635 198.672 107.736 199.078 107.736ZM208.172 109.192C207.212 109.192 206.455 108.893 205.9 108.296C205.356 107.699 205.084 106.808 205.084 105.624V101.064H206.78V105.448C206.78 106.984 207.409 107.752 208.668 107.752C209.297 107.752 209.815 107.528 210.22 107.08C210.625 106.632 210.828 105.992 210.828 105.16V101.064H212.524V109H211.02L210.892 107.608C210.647 108.099 210.284 108.488 209.804 108.776C209.335 109.053 208.791 109.192 208.172 109.192ZM214.981 109V101.064H216.501L216.645 102.568C216.923 102.045 217.307 101.635 217.797 101.336C218.299 101.027 218.901 100.872 219.605 100.872V102.648H219.141C218.672 102.648 218.251 102.728 217.877 102.888C217.515 103.037 217.221 103.299 216.997 103.672C216.784 104.035 216.677 104.541 216.677 105.192V109H214.981ZM229.019 109C228.24 109 227.621 108.813 227.163 108.44C226.704 108.056 226.475 107.379 226.475 106.408V102.488H225.115V101.064H226.475L226.683 99.048H228.171V101.064H230.411V102.488H228.171V106.408C228.171 106.845 228.261 107.149 228.443 107.32C228.635 107.48 228.96 107.56 229.419 107.56H230.331V109H229.019ZM232.459 109V101.064H233.979L234.123 102.568C234.401 102.045 234.785 101.635 235.275 101.336C235.777 101.027 236.379 100.872 237.083 100.872V102.648H236.619C236.15 102.648 235.729 102.728 235.355 102.888C234.993 103.037 234.699 103.299 234.475 103.672C234.262 104.035 234.155 104.541 234.155 105.192V109H232.459ZM239.798 99.56C239.478 99.56 239.211 99.464 238.998 99.272C238.795 99.0693 238.694 98.8187 238.694 98.52C238.694 98.2213 238.795 97.976 238.998 97.784C239.211 97.5813 239.478 97.48 239.798 97.48C240.118 97.48 240.379 97.5813 240.582 97.784C240.795 97.976 240.902 98.2213 240.902 98.52C240.902 98.8187 240.795 99.0693 240.582 99.272C240.379 99.464 240.118 99.56 239.798 99.56ZM238.95 109V101.064H240.646V109H238.95ZM245.872 109.192C245.2 109.192 244.646 109.08 244.208 108.856C243.771 108.632 243.446 108.339 243.232 107.976C243.019 107.603 242.912 107.197 242.912 106.76C242.912 105.992 243.211 105.384 243.808 104.936C244.406 104.488 245.259 104.264 246.368 104.264H248.448V104.12C248.448 103.501 248.278 103.037 247.936 102.728C247.606 102.419 247.174 102.264 246.64 102.264C246.171 102.264 245.76 102.381 245.408 102.616C245.067 102.84 244.859 103.176 244.784 103.624H243.088C243.142 103.048 243.334 102.557 243.664 102.152C244.006 101.736 244.432 101.421 244.944 101.208C245.467 100.984 246.038 100.872 246.656 100.872C247.766 100.872 248.624 101.165 249.232 101.752C249.84 102.328 250.144 103.117 250.144 104.12V109H248.672L248.528 107.64C248.304 108.077 247.979 108.445 247.552 108.744C247.126 109.043 246.566 109.192 245.872 109.192ZM246.208 107.816C246.667 107.816 247.051 107.709 247.36 107.496C247.68 107.272 247.926 106.979 248.096 106.616C248.278 106.253 248.39 105.853 248.432 105.416H246.544C245.872 105.416 245.392 105.533 245.104 105.768C244.827 106.003 244.688 106.296 244.688 106.648C244.688 107.011 244.822 107.299 245.088 107.512C245.366 107.715 245.739 107.816 246.208 107.816ZM252.422 109V97.48H254.118V109H252.422ZM260.897 109V101.064H262.401L262.529 102.456C262.774 101.965 263.132 101.581 263.601 101.304C264.081 101.016 264.63 100.872 265.249 100.872C266.209 100.872 266.961 101.171 267.505 101.768C268.06 102.365 268.337 103.256 268.337 104.44V109H266.657V104.616C266.657 103.08 266.028 102.312 264.769 102.312C264.14 102.312 263.617 102.536 263.201 102.984C262.796 103.432 262.593 104.072 262.593 104.904V109H260.897ZM274.347 109.192C273.589 109.192 272.907 109.021 272.299 108.68C271.701 108.328 271.227 107.843 270.875 107.224C270.523 106.595 270.347 105.864 270.347 105.032C270.347 104.2 270.523 103.475 270.875 102.856C271.237 102.227 271.723 101.741 272.331 101.4C272.939 101.048 273.616 100.872 274.363 100.872C275.12 100.872 275.797 101.048 276.395 101.4C277.003 101.741 277.483 102.227 277.835 102.856C278.197 103.475 278.378 104.2 278.378 105.032C278.378 105.864 278.197 106.595 277.835 107.224C277.483 107.843 277.003 108.328 276.395 108.68C275.787 109.021 275.104 109.192 274.347 109.192ZM274.347 107.736C274.752 107.736 275.125 107.635 275.467 107.432C275.819 107.229 276.101 106.931 276.315 106.536C276.528 106.131 276.635 105.629 276.635 105.032C276.635 104.435 276.528 103.939 276.315 103.544C276.112 103.139 275.835 102.835 275.483 102.632C275.141 102.429 274.768 102.328 274.363 102.328C273.957 102.328 273.579 102.429 273.227 102.632C272.885 102.835 272.608 103.139 272.395 103.544C272.181 103.939 272.075 104.435 272.075 105.032C272.075 105.629 272.181 106.131 272.395 106.536C272.608 106.931 272.885 107.229 273.227 107.432C273.568 107.635 273.941 107.736 274.347 107.736ZM281.8 109L279.464 101.064H281.16L282.696 107.048L284.424 101.064H286.312L288.04 107.048L289.576 101.064H291.272L288.936 109H287.192L285.368 102.76L283.544 109H281.8Z" fill="#00B8D9"/>
<defs>
<filter id="filter0_f_137_222" x="0" y="0" width="444" height="286" filterUnits="userSpaceOnUse" color-interpolation-filters="sRGB">
<feFlood flood-opacity="0" result="BackgroundImageFix"/>
<feBlend mode="normal" in="SourceGraphic" in2="BackgroundImageFix" result="shape"/>
<feGaussianBlur stdDeviation="60" result="effect1_foregroundBlur_137_222"/>
</filter>
</defs>
</svg>
