<svg width="244" height="21" viewBox="0 0 244 21" fill="none" xmlns="http://www.w3.org/2000/svg">
<path d="M1.088 15.9999V4.79988H3.248V14.3199H8.176V15.9999H1.088ZM13.4749 16.1919C12.6642 16.1919 11.9442 16.0212 11.3149 15.6799C10.6962 15.3279 10.2109 14.8425 9.85888 14.2239C9.51754 13.5945 9.34688 12.8745 9.34688 12.0639C9.34688 11.2212 9.51754 10.4799 9.85888 9.83988C10.2002 9.19988 10.6802 8.69854 11.2989 8.33588C11.9282 7.96254 12.6535 7.77588 13.4749 7.77588C14.2749 7.77588 14.9735 7.95188 15.5709 8.30388C16.1682 8.64521 16.6322 9.11454 16.9629 9.71188C17.3042 10.3092 17.4749 10.9865 17.4749 11.7439C17.4749 11.8505 17.4695 11.9732 17.4589 12.1119C17.4589 12.2399 17.4535 12.3732 17.4429 12.5119H10.8829V11.1839H15.2829C15.2615 10.6825 15.0802 10.2825 14.7389 9.98388C14.3975 9.67454 13.9815 9.51988 13.4909 9.51988C13.1175 9.51988 12.7762 9.60521 12.4669 9.77588C12.1575 9.94654 11.9122 10.2025 11.7309 10.5439C11.5602 10.8745 11.4749 11.2959 11.4749 11.8079V12.2719C11.4749 12.7092 11.5549 13.0932 11.7149 13.4239C11.8855 13.7439 12.1202 13.9945 12.4189 14.1759C12.7175 14.3465 13.0642 14.4319 13.4589 14.4319C13.8535 14.4319 14.1789 14.3465 14.4349 14.1759C14.7015 14.0052 14.9042 13.7812 15.0429 13.5039H17.2349C17.0855 14.0159 16.8349 14.4745 16.4829 14.8799C16.1309 15.2852 15.6989 15.6052 15.1869 15.8399C14.6749 16.0745 14.1042 16.1919 13.4749 16.1919ZM21.9479 16.1919C21.2759 16.1919 20.7212 16.0852 20.2839 15.8719C19.8465 15.6479 19.5212 15.3545 19.3079 14.9919C19.0945 14.6185 18.9879 14.2132 18.9879 13.7759C18.9879 13.2745 19.1105 12.8425 19.3559 12.4799C19.6119 12.1065 19.9959 11.8132 20.5079 11.5999C21.0199 11.3865 21.6599 11.2799 22.4279 11.2799H24.4279C24.4279 10.8852 24.3745 10.5599 24.2679 10.3039C24.1612 10.0479 23.9959 9.85588 23.7719 9.72788C23.5479 9.59988 23.2492 9.53588 22.8759 9.53588C22.4705 9.53588 22.1239 9.62654 21.8359 9.80788C21.5585 9.97854 21.3825 10.2452 21.3079 10.6079H19.2119C19.2759 10.0319 19.4679 9.53588 19.7879 9.11988C20.1185 8.69321 20.5505 8.36254 21.0839 8.12788C21.6172 7.89321 22.2199 7.77588 22.8919 7.77588C23.6492 7.77588 24.3052 7.90388 24.8599 8.15988C25.4145 8.40521 25.8412 8.77321 26.1399 9.26388C26.4385 9.74388 26.5879 10.3305 26.5879 11.0239V15.9999H24.7639L24.5239 14.7679C24.4065 14.9812 24.2679 15.1732 24.1079 15.3439C23.9479 15.5145 23.7612 15.6639 23.5479 15.7919C23.3345 15.9199 23.0945 16.0159 22.8279 16.0799C22.5612 16.1545 22.2679 16.1919 21.9479 16.1919ZM22.4599 14.5279C22.7372 14.5279 22.9825 14.4799 23.1959 14.3839C23.4199 14.2772 23.6119 14.1385 23.7719 13.9679C23.9319 13.7865 24.0545 13.5839 24.1399 13.3599C24.2359 13.1252 24.2999 12.8799 24.3319 12.6239V12.6079H22.6839C22.3532 12.6079 22.0812 12.6505 21.8679 12.7359C21.6652 12.8105 21.5159 12.9225 21.4199 13.0719C21.3239 13.2212 21.2759 13.3919 21.2759 13.5839C21.2759 13.7865 21.3239 13.9572 21.4199 14.0959C21.5159 14.2345 21.6545 14.3412 21.8359 14.4159C22.0172 14.4905 22.2252 14.5279 22.4599 14.5279ZM28.5872 15.9999V7.96788H30.5073L30.6993 9.45588C30.9019 9.10388 31.1473 8.80521 31.4353 8.55988C31.7233 8.30388 32.0539 8.11188 32.4273 7.98388C32.8113 7.84521 33.2326 7.77588 33.6913 7.77588V10.0639H32.9713C32.6513 10.0639 32.3526 10.1012 32.0753 10.1759C31.8086 10.2399 31.5739 10.3572 31.3713 10.5279C31.1686 10.6985 31.0139 10.9279 30.9073 11.2159C30.8006 11.5039 30.7473 11.8665 30.7473 12.3039V15.9999H28.5872ZM35.1029 15.9999V7.96788H37.0069L37.1669 9.27988C37.4122 8.82121 37.7589 8.45854 38.2069 8.19188C38.6655 7.91454 39.2095 7.77588 39.8389 7.77588C40.5109 7.77588 41.0762 7.91454 41.5349 8.19188C41.9935 8.46921 42.3402 8.87454 42.5749 9.40788C42.8202 9.94121 42.9429 10.6025 42.9429 11.3919V15.9999H40.7989V11.5839C40.7989 10.9439 40.6602 10.4532 40.3829 10.1119C40.1162 9.77054 39.7002 9.59988 39.1349 9.59988C38.7722 9.59988 38.4469 9.68521 38.1589 9.85588C37.8815 10.0265 37.6629 10.2719 37.5029 10.5919C37.3429 10.9012 37.2629 11.2852 37.2629 11.7439V15.9999H35.1029ZM51.4479 16.1919C50.7759 16.1919 50.2212 16.0852 49.7839 15.8719C49.3465 15.6479 49.0212 15.3545 48.8079 14.9919C48.5945 14.6185 48.4879 14.2132 48.4879 13.7759C48.4879 13.2745 48.6105 12.8425 48.8559 12.4799C49.1119 12.1065 49.4959 11.8132 50.0079 11.5999C50.5199 11.3865 51.1599 11.2799 51.9279 11.2799H53.9279C53.9279 10.8852 53.8745 10.5599 53.7679 10.3039C53.6612 10.0479 53.4959 9.85588 53.2719 9.72788C53.0479 9.59988 52.7492 9.53588 52.3759 9.53588C51.9705 9.53588 51.6239 9.62654 51.3359 9.80788C51.0585 9.97854 50.8825 10.2452 50.8079 10.6079H48.7119C48.7759 10.0319 48.9679 9.53588 49.2879 9.11988C49.6185 8.69321 50.0505 8.36254 50.5839 8.12788C51.1172 7.89321 51.7199 7.77588 52.3919 7.77588C53.1492 7.77588 53.8052 7.90388 54.3599 8.15988C54.9145 8.40521 55.3412 8.77321 55.6399 9.26388C55.9385 9.74388 56.0879 10.3305 56.0879 11.0239V15.9999H54.2639L54.0239 14.7679C53.9065 14.9812 53.7679 15.1732 53.6079 15.3439C53.4479 15.5145 53.2612 15.6639 53.0479 15.7919C52.8345 15.9199 52.5945 16.0159 52.3279 16.0799C52.0612 16.1545 51.7679 16.1919 51.4479 16.1919ZM51.9599 14.5279C52.2372 14.5279 52.4825 14.4799 52.6959 14.3839C52.9199 14.2772 53.1119 14.1385 53.2719 13.9679C53.4319 13.7865 53.5545 13.5839 53.6399 13.3599C53.7359 13.1252 53.7999 12.8799 53.8319 12.6239V12.6079H52.1839C51.8532 12.6079 51.5812 12.6505 51.3679 12.7359C51.1652 12.8105 51.0159 12.9225 50.9199 13.0719C50.8239 13.2212 50.7759 13.3919 50.7759 13.5839C50.7759 13.7865 50.8239 13.9572 50.9199 14.0959C51.0159 14.2345 51.1545 14.3412 51.3359 14.4159C51.5172 14.4905 51.7252 14.5279 51.9599 14.5279ZM62.8393 16.1919C62.4339 16.1919 62.0659 16.1385 61.7352 16.0319C61.4152 15.9359 61.1273 15.7972 60.8713 15.6159C60.6259 15.4239 60.4179 15.2052 60.2473 14.9599L60.0073 15.9999H58.0872V4.47988H60.2473V9.07188C60.5033 8.70921 60.8393 8.40521 61.2552 8.15988C61.6819 7.90388 62.2099 7.77588 62.8393 7.77588C63.5859 7.77588 64.2473 7.96254 64.8233 8.33588C65.4099 8.69854 65.8686 9.19454 66.1993 9.82388C66.5406 10.4532 66.7113 11.1785 66.7113 11.9999C66.7113 12.7999 66.5406 13.5199 66.1993 14.1599C65.8686 14.7892 65.4099 15.2852 64.8233 15.6479C64.2473 16.0105 63.5859 16.1919 62.8393 16.1919ZM62.3433 14.3039C62.7699 14.3039 63.1433 14.2079 63.4633 14.0159C63.7939 13.8132 64.0499 13.5412 64.2313 13.1999C64.4233 12.8479 64.5193 12.4425 64.5193 11.9839C64.5193 11.5359 64.4233 11.1359 64.2313 10.7839C64.0499 10.4319 63.7939 10.1599 63.4633 9.96788C63.1433 9.76521 62.7699 9.66388 62.3433 9.66388C61.9273 9.66388 61.5539 9.76521 61.2233 9.96788C60.8926 10.1599 60.6366 10.4319 60.4553 10.7839C60.2739 11.1252 60.1833 11.5252 60.1833 11.9839C60.1833 12.4425 60.2739 12.8479 60.4553 13.1999C60.6366 13.5519 60.8926 13.8239 61.2233 14.0159C61.5539 14.2079 61.9273 14.3039 62.3433 14.3039ZM72.3796 16.1919C71.6116 16.1919 70.9183 16.0159 70.2996 15.6639C69.6916 15.3012 69.2063 14.8052 68.8436 14.1759C68.4916 13.5359 68.3156 12.8052 68.3156 11.9839C68.3156 11.1519 68.4916 10.4212 68.8436 9.79188C69.2063 9.16254 69.697 8.67188 70.3156 8.31988C70.9343 7.95721 71.6276 7.77588 72.3956 7.77588C73.1743 7.77588 73.8676 7.95721 74.4756 8.31988C75.0943 8.67188 75.5796 9.16254 75.9316 9.79188C76.2943 10.4212 76.4756 11.1519 76.4756 11.9839C76.4756 12.8052 76.2943 13.5359 75.9316 14.1759C75.5796 14.8052 75.0943 15.3012 74.4756 15.6639C73.857 16.0159 73.1583 16.1919 72.3796 16.1919ZM72.3796 14.3199C72.7316 14.3199 73.0463 14.2345 73.3236 14.0639C73.6116 13.8932 73.841 13.6319 74.0116 13.2799C74.1823 12.9279 74.2676 12.4959 74.2676 11.9839C74.2676 11.4612 74.1823 11.0292 74.0116 10.6879C73.8516 10.3359 73.6276 10.0745 73.3396 9.90388C73.0623 9.73321 72.7476 9.64788 72.3956 9.64788C72.0543 9.64788 71.7396 9.73321 71.4516 9.90388C71.1636 10.0745 70.9343 10.3359 70.7636 10.6879C70.593 11.0292 70.5076 11.4612 70.5076 11.9839C70.5076 12.4959 70.593 12.9279 70.7636 13.2799C70.9343 13.6319 71.1583 13.8932 71.4356 14.0639C71.7236 14.2345 72.0383 14.3199 72.3796 14.3199ZM81.3293 16.1919C80.6786 16.1919 80.1186 16.0585 79.6493 15.7919C79.1906 15.5145 78.8386 15.1092 78.5933 14.5759C78.3586 14.0425 78.2413 13.3865 78.2413 12.6079V7.96788H80.3853V12.3839C80.3853 13.0345 80.5186 13.5305 80.7853 13.8719C81.0626 14.2025 81.4839 14.3679 82.0493 14.3679C82.4119 14.3679 82.7319 14.2879 83.0093 14.1279C83.2973 13.9572 83.5213 13.7119 83.6813 13.3919C83.8413 13.0719 83.9213 12.6825 83.9213 12.2239V7.96788H86.0813V15.9999H84.1773L84.0173 14.6879C83.7719 15.1465 83.4199 15.5145 82.9613 15.7919C82.5133 16.0585 81.9693 16.1919 81.3293 16.1919ZM91.8126 15.9999C91.258 15.9999 90.7673 15.9145 90.3406 15.7439C89.914 15.5625 89.5833 15.2692 89.3486 14.8639C89.114 14.4479 88.9966 13.8825 88.9966 13.1679V9.77588H87.6206V7.96788H88.9966L89.2526 5.77588H91.1566V7.96788H93.2846V9.77588H91.1566V13.1999C91.1566 13.5625 91.2366 13.8132 91.3966 13.9519C91.5566 14.0905 91.8286 14.1599 92.2126 14.1599H93.2526V15.9999H91.8126ZM102.149 16.1919C101.413 16.1919 100.773 16.0745 100.229 15.8399C99.6955 15.6052 99.2689 15.2852 98.9489 14.8799C98.6395 14.4639 98.4635 13.9892 98.4209 13.4559H100.565C100.618 13.6585 100.709 13.8452 100.837 14.0159C100.965 14.1759 101.136 14.3039 101.349 14.3999C101.573 14.4959 101.829 14.5439 102.117 14.5439C102.405 14.5439 102.64 14.5065 102.821 14.4319C103.002 14.3465 103.136 14.2399 103.221 14.1119C103.317 13.9732 103.365 13.8292 103.365 13.6799C103.365 13.4452 103.301 13.2692 103.173 13.1519C103.045 13.0345 102.853 12.9385 102.597 12.8639C102.352 12.7892 102.058 12.7145 101.717 12.6399C101.344 12.5652 100.97 12.4745 100.597 12.3679C100.234 12.2505 99.9035 12.1065 99.6049 11.9359C99.3169 11.7652 99.0875 11.5465 98.9169 11.2799C98.7462 11.0132 98.6609 10.6825 98.6609 10.2879C98.6609 9.81854 98.7889 9.39188 99.0449 9.00788C99.3009 8.62388 99.6742 8.32521 100.165 8.11188C100.656 7.88788 101.242 7.77588 101.925 7.77588C102.896 7.77588 103.664 7.99454 104.229 8.43188C104.805 8.86921 105.141 9.47188 105.237 10.2399H103.205C103.152 9.98388 103.013 9.78654 102.789 9.64788C102.565 9.50921 102.277 9.43988 101.925 9.43988C101.541 9.43988 101.248 9.50921 101.045 9.64788C100.853 9.78654 100.757 9.96254 100.757 10.1759C100.757 10.3252 100.821 10.4585 100.949 10.5759C101.077 10.6932 101.264 10.7945 101.509 10.8799C101.754 10.9545 102.053 11.0292 102.405 11.1039C103.024 11.2319 103.562 11.3759 104.021 11.5359C104.49 11.6959 104.858 11.9305 105.125 12.2399C105.392 12.5385 105.525 12.9759 105.525 13.5519C105.536 14.0639 105.402 14.5225 105.125 14.9279C104.848 15.3225 104.453 15.6319 103.941 15.8559C103.44 16.0799 102.842 16.1919 102.149 16.1919ZM111.257 16.1919C110.446 16.1919 109.726 16.0159 109.097 15.6639C108.468 15.3012 107.977 14.8052 107.625 14.1759C107.273 13.5359 107.097 12.8105 107.097 11.9999C107.097 11.1679 107.273 10.4372 107.625 9.80788C107.977 9.17854 108.468 8.68254 109.097 8.31988C109.726 7.95721 110.446 7.77588 111.257 7.77588C112.292 7.77588 113.156 8.04788 113.849 8.59188C114.553 9.12521 115.001 9.86654 115.193 10.8159H112.905C112.82 10.4425 112.622 10.1492 112.313 9.93588C112.014 9.72254 111.657 9.61588 111.241 9.61588C110.868 9.61588 110.532 9.71188 110.233 9.90388C109.945 10.0959 109.716 10.3679 109.545 10.7199C109.374 11.0719 109.289 11.4932 109.289 11.9839C109.289 12.3465 109.337 12.6772 109.433 12.9759C109.54 13.2639 109.678 13.5145 109.849 13.7279C110.02 13.9305 110.222 14.0852 110.457 14.1919C110.702 14.2985 110.964 14.3519 111.241 14.3519C111.518 14.3519 111.769 14.3092 111.993 14.2239C112.217 14.1279 112.409 13.9892 112.569 13.8079C112.74 13.6265 112.852 13.4079 112.905 13.1519H115.193C115.001 14.0799 114.553 14.8212 113.849 15.3759C113.145 15.9199 112.281 16.1919 111.257 16.1919ZM117.056 15.9999V4.47988H119.216V9.15188C119.472 8.73588 119.824 8.40521 120.272 8.15988C120.72 7.90388 121.237 7.77588 121.824 7.77588C122.496 7.77588 123.061 7.91454 123.52 8.19188C123.979 8.46921 124.325 8.87988 124.56 9.42388C124.795 9.95721 124.912 10.6185 124.912 11.4079V15.9999H122.768V11.6159C122.768 10.9652 122.635 10.4692 122.368 10.1279C122.101 9.77588 121.68 9.59988 121.104 9.59988C120.752 9.59988 120.427 9.68521 120.128 9.85588C119.84 10.0265 119.616 10.2719 119.456 10.5919C119.296 10.9119 119.216 11.3012 119.216 11.7599V15.9999H117.056ZM130.803 16.1919C129.992 16.1919 129.272 16.0212 128.643 15.6799C128.024 15.3279 127.539 14.8425 127.187 14.2239C126.846 13.5945 126.675 12.8745 126.675 12.0639C126.675 11.2212 126.846 10.4799 127.187 9.83988C127.528 9.19988 128.008 8.69854 128.627 8.33588C129.256 7.96254 129.982 7.77588 130.803 7.77588C131.603 7.77588 132.302 7.95188 132.899 8.30388C133.496 8.64521 133.96 9.11454 134.291 9.71188C134.632 10.3092 134.803 10.9865 134.803 11.7439C134.803 11.8505 134.798 11.9732 134.787 12.1119C134.787 12.2399 134.782 12.3732 134.771 12.5119H128.211V11.1839H132.611C132.59 10.6825 132.408 10.2825 132.067 9.98388C131.726 9.67454 131.31 9.51988 130.819 9.51988C130.446 9.51988 130.104 9.60521 129.795 9.77588C129.486 9.94654 129.24 10.2025 129.059 10.5439C128.888 10.8745 128.803 11.2959 128.803 11.8079V12.2719C128.803 12.7092 128.883 13.0932 129.043 13.4239C129.214 13.7439 129.448 13.9945 129.747 14.1759C130.046 14.3465 130.392 14.4319 130.787 14.4319C131.182 14.4319 131.507 14.3465 131.763 14.1759C132.03 14.0052 132.232 13.7812 132.371 13.5039H134.563C134.414 14.0159 134.163 14.4745 133.811 14.8799C133.459 15.2852 133.027 15.6052 132.515 15.8399C132.003 16.0745 131.432 16.1919 130.803 16.1919ZM140.14 16.1919C139.415 16.1919 138.759 16.0105 138.172 15.6479C137.585 15.2852 137.127 14.7892 136.796 14.1599C136.465 13.5199 136.3 12.7945 136.3 11.9839C136.3 11.1732 136.465 10.4532 136.796 9.82388C137.137 9.18388 137.601 8.68254 138.188 8.31988C138.785 7.95721 139.452 7.77588 140.188 7.77588C140.775 7.77588 141.281 7.88254 141.708 8.09588C142.145 8.30921 142.497 8.61321 142.764 9.00788V4.47988H144.924V15.9999H143.004L142.764 14.8959C142.604 15.1199 142.401 15.3332 142.156 15.5359C141.921 15.7385 141.639 15.8985 141.308 16.0159C140.977 16.1332 140.588 16.1919 140.14 16.1919ZM140.652 14.3039C141.079 14.3039 141.452 14.2079 141.772 14.0159C142.103 13.8132 142.359 13.5359 142.54 13.1839C142.732 12.8319 142.828 12.4319 142.828 11.9839C142.828 11.5252 142.732 11.1199 142.54 10.7679C142.359 10.4159 142.103 10.1439 141.772 9.95188C141.452 9.75988 141.079 9.66388 140.652 9.66388C140.247 9.66388 139.879 9.75988 139.548 9.95188C139.217 10.1439 138.956 10.4159 138.764 10.7679C138.583 11.1199 138.492 11.5199 138.492 11.9679C138.492 12.4265 138.583 12.8319 138.764 13.1839C138.956 13.5359 139.217 13.8132 139.548 14.0159C139.879 14.2079 140.247 14.3039 140.652 14.3039ZM150.032 16.1919C149.382 16.1919 148.822 16.0585 148.352 15.7919C147.894 15.5145 147.542 15.1092 147.296 14.5759C147.062 14.0425 146.944 13.3865 146.944 12.6079V7.96788H149.088V12.3839C149.088 13.0345 149.222 13.5305 149.488 13.8719C149.766 14.2025 150.187 14.3679 150.752 14.3679C151.115 14.3679 151.435 14.2879 151.712 14.1279C152 13.9572 152.224 13.7119 152.384 13.3919C152.544 13.0719 152.624 12.6825 152.624 12.2239V7.96788H154.784V15.9999H152.88L152.72 14.6879C152.475 15.1465 152.123 15.5145 151.664 15.7919C151.216 16.0585 150.672 16.1919 150.032 16.1919ZM156.9 15.9999V4.47988H159.06V15.9999H156.9ZM165.022 16.1919C164.211 16.1919 163.491 16.0212 162.862 15.6799C162.243 15.3279 161.758 14.8425 161.406 14.2239C161.064 13.5945 160.894 12.8745 160.894 12.0639C160.894 11.2212 161.064 10.4799 161.406 9.83988C161.747 9.19988 162.227 8.69854 162.846 8.33588C163.475 7.96254 164.2 7.77588 165.022 7.77588C165.822 7.77588 166.52 7.95188 167.118 8.30388C167.715 8.64521 168.179 9.11454 168.51 9.71188C168.851 10.3092 169.022 10.9865 169.022 11.7439C169.022 11.8505 169.016 11.9732 169.006 12.1119C169.006 12.2399 169 12.3732 168.99 12.5119H162.43V11.1839H166.83C166.808 10.6825 166.627 10.2825 166.286 9.98388C165.944 9.67454 165.528 9.51988 165.038 9.51988C164.664 9.51988 164.323 9.60521 164.014 9.77588C163.704 9.94654 163.459 10.2025 163.278 10.5439C163.107 10.8745 163.022 11.2959 163.022 11.8079V12.2719C163.022 12.7092 163.102 13.0932 163.262 13.4239C163.432 13.7439 163.667 13.9945 163.966 14.1759C164.264 14.3465 164.611 14.4319 165.006 14.4319C165.4 14.4319 165.726 14.3465 165.982 14.1759C166.248 14.0052 166.451 13.7812 166.59 13.5039H168.782C168.632 14.0159 168.382 14.4745 168.03 14.8799C167.678 15.2852 167.246 15.6052 166.734 15.8399C166.222 16.0745 165.651 16.1919 165.022 16.1919ZM174.359 16.1919C173.633 16.1919 172.977 16.0105 172.391 15.6479C171.804 15.2852 171.345 14.7892 171.015 14.1599C170.684 13.5199 170.519 12.7945 170.519 11.9839C170.519 11.1732 170.684 10.4532 171.015 9.82388C171.356 9.18388 171.82 8.68254 172.407 8.31988C173.004 7.95721 173.671 7.77588 174.407 7.77588C174.993 7.77588 175.5 7.88254 175.927 8.09588C176.364 8.30921 176.716 8.61321 176.983 9.00788V4.47988H179.143V15.9999H177.223L176.983 14.8959C176.823 15.1199 176.62 15.3332 176.375 15.5359C176.14 15.7385 175.857 15.8985 175.527 16.0159C175.196 16.1332 174.807 16.1919 174.359 16.1919ZM174.871 14.3039C175.297 14.3039 175.671 14.2079 175.991 14.0159C176.321 13.8132 176.577 13.5359 176.759 13.1839C176.951 12.8319 177.047 12.4319 177.047 11.9839C177.047 11.5252 176.951 11.1199 176.759 10.7679C176.577 10.4159 176.321 10.1439 175.991 9.95188C175.671 9.75988 175.297 9.66388 174.871 9.66388C174.465 9.66388 174.097 9.75988 173.767 9.95188C173.436 10.1439 173.175 10.4159 172.983 10.7679C172.801 11.1199 172.711 11.5199 172.711 11.9679C172.711 12.4265 172.801 12.8319 172.983 13.1839C173.175 13.5359 173.436 13.8132 173.767 14.0159C174.097 14.2079 174.465 14.3039 174.871 14.3039ZM185.025 19.5199V7.96788H186.945L187.185 9.07188C187.355 8.83721 187.558 8.62388 187.793 8.43188C188.027 8.22921 188.305 8.06921 188.625 7.95188C188.955 7.83454 189.339 7.77588 189.777 7.77588C190.534 7.77588 191.201 7.96254 191.777 8.33588C192.353 8.69854 192.806 9.19988 193.137 9.83988C193.478 10.4692 193.649 11.1892 193.649 11.9999C193.649 12.7999 193.478 13.5199 193.137 14.1599C192.795 14.7892 192.337 15.2852 191.761 15.6479C191.185 16.0105 190.529 16.1919 189.793 16.1919C189.195 16.1919 188.678 16.0852 188.241 15.8719C187.803 15.6479 187.451 15.3439 187.185 14.9599V19.5199H185.025ZM189.281 14.3039C189.707 14.3039 190.081 14.2079 190.401 14.0159C190.731 13.8239 190.987 13.5519 191.169 13.1999C191.361 12.8479 191.457 12.4479 191.457 11.9999C191.457 11.5412 191.361 11.1359 191.169 10.7839C190.987 10.4319 190.731 10.1599 190.401 9.96788C190.081 9.76521 189.707 9.66388 189.281 9.66388C188.865 9.66388 188.491 9.76521 188.161 9.96788C187.83 10.1599 187.574 10.4319 187.393 10.7839C187.211 11.1252 187.121 11.5252 187.121 11.9839C187.121 12.4425 187.211 12.8479 187.393 13.1999C187.574 13.5519 187.83 13.8239 188.161 14.0159C188.491 14.2079 188.865 14.3039 189.281 14.3039ZM199.317 16.1919C198.549 16.1919 197.856 16.0159 197.237 15.6639C196.629 15.3012 196.144 14.8052 195.781 14.1759C195.429 13.5359 195.253 12.8052 195.253 11.9839C195.253 11.1519 195.429 10.4212 195.781 9.79188C196.144 9.16254 196.634 8.67188 197.253 8.31988C197.872 7.95721 198.565 7.77588 199.333 7.77588C200.112 7.77588 200.805 7.95721 201.413 8.31988C202.032 8.67188 202.517 9.16254 202.869 9.79188C203.232 10.4212 203.413 11.1519 203.413 11.9839C203.413 12.8052 203.232 13.5359 202.869 14.1759C202.517 14.8052 202.032 15.3012 201.413 15.6639C200.794 16.0159 200.096 16.1919 199.317 16.1919ZM199.317 14.3199C199.669 14.3199 199.984 14.2345 200.261 14.0639C200.549 13.8932 200.778 13.6319 200.949 13.2799C201.12 12.9279 201.205 12.4959 201.205 11.9839C201.205 11.4612 201.12 11.0292 200.949 10.6879C200.789 10.3359 200.565 10.0745 200.277 9.90388C200 9.73321 199.685 9.64788 199.333 9.64788C198.992 9.64788 198.677 9.73321 198.389 9.90388C198.101 10.0745 197.872 10.3359 197.701 10.6879C197.53 11.0292 197.445 11.4612 197.445 11.9839C197.445 12.4959 197.53 12.9279 197.701 13.2799C197.872 13.6319 198.096 13.8932 198.373 14.0639C198.661 14.2345 198.976 14.3199 199.317 14.3199ZM208.571 16.1919C207.835 16.1919 207.195 16.0745 206.651 15.8399C206.117 15.6052 205.691 15.2852 205.371 14.8799C205.061 14.4639 204.885 13.9892 204.843 13.4559H206.987C207.04 13.6585 207.131 13.8452 207.259 14.0159C207.387 14.1759 207.557 14.3039 207.771 14.3999C207.995 14.4959 208.251 14.5439 208.539 14.5439C208.827 14.5439 209.061 14.5065 209.243 14.4319C209.424 14.3465 209.557 14.2399 209.643 14.1119C209.739 13.9732 209.787 13.8292 209.787 13.6799C209.787 13.4452 209.723 13.2692 209.595 13.1519C209.467 13.0345 209.275 12.9385 209.019 12.8639C208.773 12.7892 208.48 12.7145 208.139 12.6399C207.765 12.5652 207.392 12.4745 207.019 12.3679C206.656 12.2505 206.325 12.1065 206.027 11.9359C205.739 11.7652 205.509 11.5465 205.339 11.2799C205.168 11.0132 205.083 10.6825 205.083 10.2879C205.083 9.81854 205.211 9.39188 205.467 9.00788C205.723 8.62388 206.096 8.32521 206.587 8.11188C207.077 7.88788 207.664 7.77588 208.347 7.77588C209.317 7.77588 210.085 7.99454 210.651 8.43188C211.227 8.86921 211.563 9.47188 211.659 10.2399H209.627C209.573 9.98388 209.435 9.78654 209.211 9.64788C208.987 9.50921 208.699 9.43988 208.347 9.43988C207.963 9.43988 207.669 9.50921 207.467 9.64788C207.275 9.78654 207.179 9.96254 207.179 10.1759C207.179 10.3252 207.243 10.4585 207.371 10.5759C207.499 10.6932 207.685 10.7945 207.931 10.8799C208.176 10.9545 208.475 11.0292 208.827 11.1039C209.445 11.2319 209.984 11.3759 210.443 11.5359C210.912 11.6959 211.28 11.9305 211.547 12.2399C211.813 12.5385 211.947 12.9759 211.947 13.5519C211.957 14.0639 211.824 14.5225 211.547 14.9279C211.269 15.3225 210.875 15.6319 210.363 15.8559C209.861 16.0799 209.264 16.1919 208.571 16.1919ZM217.141 15.9999C216.586 15.9999 216.095 15.9145 215.669 15.7439C215.242 15.5625 214.911 15.2692 214.677 14.8639C214.442 14.4479 214.325 13.8825 214.325 13.1679V9.77588H212.949V7.96788H214.325L214.581 5.77588H216.485V7.96788H218.613V9.77588H216.485V13.1999C216.485 13.5625 216.565 13.8132 216.725 13.9519C216.885 14.0905 217.157 14.1599 217.541 14.1599H218.581V15.9999H217.141Z" fill="#04AADD"/>
<path d="M243.53 12.5302C243.823 12.2373 243.823 11.7624 243.53 11.4695L238.757 6.69658C238.464 6.40368 237.99 6.40368 237.697 6.69658C237.404 6.98947 237.404 7.46434 237.697 7.75724L241.939 11.9999L237.697 16.2425C237.404 16.5354 237.404 17.0103 237.697 17.3032C237.99 17.5961 238.464 17.5961 238.757 17.3032L243.53 12.5302ZM228 12.7499L243 12.7499L243 11.2499L228 11.2499L228 12.7499Z" fill="#04AADD"/>
</svg>
