<svg width="553" height="198" viewBox="0 0 553 198" fill="none" xmlns="http://www.w3.org/2000/svg">
<path d="M10.688 45L0.32 0.199997H9.472L17.408 39.56H17.728L26.624 0.199997H36.992L46.4 39.56H46.656L54.144 0.199997H63.296L53.056 45H40.32L31.872 9.544H31.616L23.36 45H10.688ZM78.3635 45.768C75.1208 45.768 72.2408 45.0853 69.7235 43.72C67.2488 42.3547 65.3075 40.4347 63.8995 37.96C62.4915 35.4853 61.7875 32.648 61.7875 29.448C61.7875 26.12 62.4702 23.1973 63.8355 20.68C65.2435 18.12 67.1848 16.1147 69.6595 14.664C72.1768 13.2133 75.0782 12.488 78.3635 12.488C81.5635 12.488 84.3582 13.1707 86.7475 14.536C89.1368 15.9013 91.0142 17.7787 92.3795 20.168C93.7448 22.5147 94.4275 25.1813 94.4275 28.168C94.4275 28.5947 94.4062 29.0853 94.3635 29.64C94.3635 30.152 94.3422 30.6853 94.2995 31.24H67.9315V25.928H85.6595C85.5315 23.9227 84.7848 22.3227 83.4195 21.128C82.0968 19.9333 80.4328 19.336 78.4275 19.336C76.9342 19.336 75.5688 19.6773 74.3315 20.36C73.0942 21 72.1128 22.0027 71.3875 23.368C70.6622 24.6907 70.2995 26.376 70.2995 28.424V30.28C70.2995 32.0293 70.6408 33.544 71.3235 34.824C72.0062 36.0613 72.9448 37.0213 74.1395 37.704C75.3768 38.3867 76.7635 38.728 78.2995 38.728C79.8782 38.728 81.2008 38.3867 82.2675 37.704C83.3342 36.9787 84.1448 36.0613 84.6995 34.952H93.4675C92.8702 36.9573 91.8675 38.792 90.4595 40.456C89.0515 42.0773 87.3235 43.3787 85.2755 44.36C83.2275 45.2987 80.9235 45.768 78.3635 45.768ZM111.38 45V0.199997H119.892V18.568H120.148C121.257 16.6053 122.708 15.112 124.5 14.088C126.292 13.0213 128.404 12.488 130.836 12.488C133.396 12.488 135.572 13.064 137.364 14.216C139.156 15.3253 140.521 16.968 141.46 19.144C142.399 21.32 142.868 24.008 142.868 27.208V45H134.292V27.976C134.292 25.3307 133.759 23.304 132.692 21.896C131.668 20.488 130.004 19.784 127.7 19.784C126.207 19.784 124.884 20.1467 123.732 20.872C122.58 21.5547 121.663 22.5573 120.98 23.88C120.34 25.16 120.02 26.7387 120.02 28.616V45H111.38ZM163.301 45.768C160.058 45.768 157.178 45.0853 154.661 43.72C152.186 42.3547 150.245 40.4347 148.837 37.96C147.429 35.4853 146.725 32.648 146.725 29.448C146.725 26.12 147.408 23.1973 148.773 20.68C150.181 18.12 152.122 16.1147 154.597 14.664C157.114 13.2133 160.016 12.488 163.301 12.488C166.501 12.488 169.296 13.1707 171.685 14.536C174.074 15.9013 175.952 17.7787 177.317 20.168C178.682 22.5147 179.365 25.1813 179.365 28.168C179.365 28.5947 179.344 29.0853 179.301 29.64C179.301 30.152 179.28 30.6853 179.237 31.24H152.869V25.928H170.597C170.469 23.9227 169.722 22.3227 168.357 21.128C167.034 19.9333 165.37 19.336 163.365 19.336C161.872 19.336 160.506 19.6773 159.269 20.36C158.032 21 157.05 22.0027 156.325 23.368C155.6 24.6907 155.237 26.376 155.237 28.424V30.28C155.237 32.0293 155.578 33.544 156.261 34.824C156.944 36.0613 157.882 37.0213 159.077 37.704C160.314 38.3867 161.701 38.728 163.237 38.728C164.816 38.728 166.138 38.3867 167.205 37.704C168.272 36.9787 169.082 36.0613 169.637 34.952H178.405C177.808 36.9573 176.805 38.792 175.397 40.456C173.989 42.0773 172.261 43.3787 170.213 44.36C168.165 45.2987 165.861 45.768 163.301 45.768ZM183.505 45V0.199997H192.145V45H183.505ZM197.88 57.8V13.256H205.112L205.624 18.824H205.88C206.691 17.5013 207.651 16.3707 208.76 15.432C209.912 14.4933 211.213 13.768 212.664 13.256C214.157 12.744 215.779 12.488 217.528 12.488C220.557 12.488 223.181 13.2133 225.4 14.664C227.619 16.072 229.347 18.0347 230.584 20.552C231.821 23.0693 232.44 25.928 232.44 29.128C232.44 32.328 231.821 35.1867 230.584 37.704C229.347 40.2213 227.597 42.2053 225.336 43.656C223.075 45.064 220.387 45.768 217.272 45.768C214.797 45.768 212.643 45.2987 210.808 44.36C209.016 43.3787 207.587 42.2267 206.52 40.904V57.8H197.88ZM215.032 38.728C216.781 38.728 218.296 38.3227 219.576 37.512C220.899 36.7013 221.901 35.592 222.584 34.184C223.309 32.7333 223.672 31.0693 223.672 29.192C223.672 27.272 223.309 25.608 222.584 24.2C221.901 22.7493 220.899 21.6187 219.576 20.808C218.296 19.9973 216.781 19.592 215.032 19.592C213.325 19.592 211.811 19.9973 210.488 20.808C209.165 21.6187 208.141 22.7493 207.416 24.2C206.691 25.608 206.328 27.272 206.328 29.192C206.328 31.0693 206.691 32.7333 207.416 34.184C208.141 35.592 209.165 36.7013 210.488 37.512C211.811 38.3227 213.325 38.728 215.032 38.728ZM254.747 57.8L261.979 41.416H260.187L247.195 13.256H256.603L265.755 33.864H266.011L274.203 13.256H283.419L263.899 57.8H254.747ZM298.92 45.768C295.848 45.768 293.075 45.064 290.6 43.656C288.125 42.248 286.163 40.2853 284.712 37.768C283.304 35.2507 282.6 32.3707 282.6 29.128C282.6 25.8427 283.325 22.9627 284.776 20.488C286.227 17.9707 288.189 16.008 290.664 14.6C293.139 13.192 295.891 12.488 298.92 12.488C301.992 12.488 304.765 13.192 307.24 14.6C309.715 16.008 311.656 17.9707 313.064 20.488C314.515 22.9627 315.24 25.8427 315.24 29.128C315.24 32.4133 314.515 35.3147 313.064 37.832C311.613 40.3067 309.651 42.248 307.176 43.656C304.744 45.064 301.992 45.768 298.92 45.768ZM298.856 38.472C300.264 38.472 301.523 38.1307 302.632 37.448C303.784 36.7653 304.701 35.7413 305.384 34.376C306.067 32.968 306.408 31.2187 306.408 29.128C306.408 27.0373 306.067 25.3093 305.384 23.944C304.701 22.536 303.784 21.4907 302.632 20.808C301.523 20.1253 300.307 19.784 298.984 19.784C297.619 19.784 296.36 20.1253 295.208 20.808C294.056 21.4907 293.139 22.536 292.456 23.944C291.773 25.3093 291.432 27.0373 291.432 29.128C291.432 31.2187 291.773 32.968 292.456 34.376C293.139 35.7413 294.035 36.7653 295.144 37.448C296.296 38.1307 297.533 38.472 298.856 38.472ZM331.405 45.768C328.802 45.768 326.583 45.2133 324.749 44.104C322.914 42.9947 321.506 41.352 320.525 39.176C319.543 36.9573 319.053 34.248 319.053 31.048V13.256H327.629V30.28C327.629 32.9253 328.162 34.952 329.229 36.36C330.338 37.768 332.045 38.472 334.349 38.472C335.842 38.472 337.143 38.1307 338.253 37.448C339.405 36.7227 340.301 35.6987 340.941 34.376C341.581 33.0533 341.901 31.4747 341.901 29.64V13.256H350.541V45H343.181L342.413 39.944H342.157C341.175 41.736 339.789 43.1653 337.997 44.232C336.247 45.256 334.05 45.768 331.405 45.768ZM17.472 134.568C14.4427 134.568 11.776 134.205 9.472 133.48C7.21067 132.755 5.44 131.667 4.16 130.216C2.92267 128.808 2.304 127.101 2.304 125.096C2.304 123.603 2.688 122.237 3.456 121C4.224 119.72 5.35467 118.568 6.848 117.544C8.34133 116.477 10.176 115.56 12.352 114.792L15.488 119.08C13.6107 119.72 12.2453 120.488 11.392 121.384C10.5387 122.28 10.112 123.304 10.112 124.456C10.112 125.309 10.4107 126.035 11.008 126.632C11.648 127.229 12.5227 127.677 13.632 127.976C14.7413 128.317 16.0213 128.488 17.472 128.488C18.9227 128.488 20.1387 128.317 21.12 127.976C22.1013 127.635 22.848 127.144 23.36 126.504C23.872 125.907 24.128 125.203 24.128 124.392C24.128 123.24 23.7227 122.344 22.912 121.704C22.1013 121.107 20.5227 120.723 18.176 120.552C16 120.381 14.08 120.147 12.416 119.848C10.752 119.507 9.28 119.123 8 118.696C6.76267 118.227 5.696 117.715 4.8 117.16C3.904 116.605 3.17867 116.051 2.624 115.496V114.024L9.472 106.984L14.528 108.904L7.616 116.584L9.92 112.744C10.3467 112.915 10.7947 113.085 11.264 113.256C11.7333 113.427 12.3093 113.597 12.992 113.768C13.7173 113.939 14.6133 114.109 15.68 114.28C16.7893 114.408 18.176 114.557 19.84 114.728C22.656 114.941 24.96 115.432 26.752 116.2C28.544 116.968 29.8667 118.013 30.72 119.336C31.5733 120.659 32 122.28 32 124.2C32 125.864 31.4667 127.485 30.4 129.064C29.376 130.685 27.7973 132.008 25.664 133.032C23.5307 134.056 20.8 134.568 17.472 134.568ZM17.536 111.592C14.848 111.592 12.5227 111.08 10.56 110.056C8.64 109.032 7.14667 107.645 6.08 105.896C5.056 104.147 4.544 102.205 4.544 100.072C4.544 97.9387 5.056 95.9973 6.08 94.248C7.14667 92.4987 8.64 91.112 10.56 90.088C12.5227 89.0213 14.848 88.488 17.536 88.488C20.224 88.488 22.528 89.0213 24.448 90.088C26.4107 91.112 27.904 92.4987 28.928 94.248C29.952 95.9973 30.464 97.9387 30.464 100.072C30.464 102.205 29.952 104.147 28.928 105.896C27.904 107.645 26.4107 109.032 24.448 110.056C22.528 111.08 20.224 111.592 17.536 111.592ZM17.472 105.32C19.1787 105.32 20.544 104.893 21.568 104.04C22.6347 103.144 23.168 101.821 23.168 100.072C23.168 98.3227 22.6347 97.0213 21.568 96.168C20.544 95.272 19.2 94.824 17.536 94.824C15.8293 94.824 14.4427 95.272 13.376 96.168C12.352 97.0213 11.84 98.3227 11.84 100.072C11.84 101.821 12.352 103.144 13.376 104.04C14.4427 104.893 15.808 105.32 17.472 105.32ZM22.72 95.08L21.312 89.256H34.624V93.928L22.72 95.08ZM38.8725 121V89.256H46.2325L47.0005 96.232H47.2565C48.1952 93.9707 49.2192 92.3067 50.3285 91.24C51.4378 90.1307 52.6965 89.4053 54.1045 89.064C55.5552 88.68 57.1765 88.488 58.9685 88.488V97.64H56.6005C55.1498 97.64 53.8485 97.8107 52.6965 98.152C51.5872 98.4507 50.6485 98.9627 49.8805 99.688C49.1125 100.371 48.5152 101.288 48.0885 102.44C47.7045 103.592 47.5125 104.979 47.5125 106.6V121H38.8725ZM76.7325 121.768C73.6605 121.768 70.8872 121.064 68.4125 119.656C65.9378 118.248 63.9752 116.285 62.5245 113.768C61.1165 111.251 60.4125 108.371 60.4125 105.128C60.4125 101.843 61.1378 98.9627 62.5885 96.488C64.0392 93.9707 66.0018 92.008 68.4765 90.6C70.9512 89.192 73.7032 88.488 76.7325 88.488C79.8045 88.488 82.5778 89.192 85.0525 90.6C87.5272 92.008 89.4685 93.9707 90.8765 96.488C92.3272 98.9627 93.0525 101.843 93.0525 105.128C93.0525 108.413 92.3272 111.315 90.8765 113.832C89.4258 116.307 87.4632 118.248 84.9885 119.656C82.5565 121.064 79.8045 121.768 76.7325 121.768ZM76.6685 114.472C78.0765 114.472 79.3352 114.131 80.4445 113.448C81.5965 112.765 82.5138 111.741 83.1965 110.376C83.8792 108.968 84.2205 107.219 84.2205 105.128C84.2205 103.037 83.8792 101.309 83.1965 99.944C82.5138 98.536 81.5965 97.4907 80.4445 96.808C79.3352 96.1253 78.1192 95.784 76.7965 95.784C75.4312 95.784 74.1725 96.1253 73.0205 96.808C71.8685 97.4907 70.9512 98.536 70.2685 99.944C69.5858 101.309 69.2445 103.037 69.2445 105.128C69.2445 107.219 69.5858 108.968 70.2685 110.376C70.9512 111.741 71.8472 112.765 72.9565 113.448C74.1085 114.131 75.3458 114.472 76.6685 114.472ZM102.139 121L93.8825 89.256H102.395L107.707 114.92H107.963L113.851 89.256H123.707L129.659 114.856H129.915L135.163 89.256H143.739L135.355 121H125.051L118.907 95.592H118.651L112.443 121H102.139ZM164.747 133.8L171.979 117.416H170.187L157.195 89.256H166.603L175.755 109.864H176.011L184.203 89.256H193.419L173.899 133.8H164.747ZM208.92 121.768C205.848 121.768 203.075 121.064 200.6 119.656C198.125 118.248 196.163 116.285 194.712 113.768C193.304 111.251 192.6 108.371 192.6 105.128C192.6 101.843 193.325 98.9627 194.776 96.488C196.227 93.9707 198.189 92.008 200.664 90.6C203.139 89.192 205.891 88.488 208.92 88.488C211.992 88.488 214.765 89.192 217.24 90.6C219.715 92.008 221.656 93.9707 223.064 96.488C224.515 98.9627 225.24 101.843 225.24 105.128C225.24 108.413 224.515 111.315 223.064 113.832C221.613 116.307 219.651 118.248 217.176 119.656C214.744 121.064 211.992 121.768 208.92 121.768ZM208.856 114.472C210.264 114.472 211.523 114.131 212.632 113.448C213.784 112.765 214.701 111.741 215.384 110.376C216.067 108.968 216.408 107.219 216.408 105.128C216.408 103.037 216.067 101.309 215.384 99.944C214.701 98.536 213.784 97.4907 212.632 96.808C211.523 96.1253 210.307 95.784 208.984 95.784C207.619 95.784 206.36 96.1253 205.208 96.808C204.056 97.4907 203.139 98.536 202.456 99.944C201.773 101.309 201.432 103.037 201.432 105.128C201.432 107.219 201.773 108.968 202.456 110.376C203.139 111.741 204.035 112.765 205.144 113.448C206.296 114.131 207.533 114.472 208.856 114.472ZM241.405 121.768C238.802 121.768 236.583 121.213 234.749 120.104C232.914 118.995 231.506 117.352 230.525 115.176C229.543 112.957 229.053 110.248 229.053 107.048V89.256H237.629V106.28C237.629 108.925 238.162 110.952 239.229 112.36C240.338 113.768 242.045 114.472 244.349 114.472C245.842 114.472 247.143 114.131 248.253 113.448C249.405 112.723 250.301 111.699 250.941 110.376C251.581 109.053 251.901 107.475 251.901 105.64V89.256H260.541V121H253.181L252.413 115.944H252.157C251.175 117.736 249.789 119.165 247.997 120.232C246.247 121.256 244.05 121.768 241.405 121.768ZM265.685 121V89.256H273.045L273.813 96.232H274.069C275.008 93.9707 276.032 92.3067 277.141 91.24C278.25 90.1307 279.509 89.4053 280.917 89.064C282.368 88.68 283.989 88.488 285.781 88.488V97.64H283.413C281.962 97.64 280.661 97.8107 279.509 98.152C278.4 98.4507 277.461 98.9627 276.693 99.688C275.925 100.371 275.328 101.288 274.901 102.44C274.517 103.592 274.325 104.979 274.325 106.6V121H265.685ZM321.466 121.768C319.716 121.768 318.095 121.512 316.602 121C315.151 120.488 313.85 119.763 312.698 118.824C311.588 117.885 310.628 116.755 309.818 115.432H309.562L309.05 121H301.818V76.2H310.458V93.352C311.524 92.0293 312.954 90.8987 314.746 89.96C316.58 88.9787 318.735 88.488 321.21 88.488C324.324 88.488 327.012 89.2133 329.274 90.664C331.535 92.072 333.284 94.0347 334.522 96.552C335.759 99.0267 336.378 101.885 336.378 105.128C336.378 108.328 335.759 111.187 334.522 113.704C333.284 116.221 331.556 118.205 329.338 119.656C327.119 121.064 324.495 121.768 321.466 121.768ZM318.97 114.664C320.719 114.664 322.234 114.259 323.514 113.448C324.836 112.595 325.839 111.464 326.522 110.056C327.247 108.648 327.61 106.984 327.61 105.064C327.61 103.187 327.247 101.544 326.522 100.136C325.839 98.6853 324.836 97.5547 323.514 96.744C322.234 95.9333 320.719 95.528 318.97 95.528C317.263 95.528 315.748 95.9333 314.426 96.744C313.103 97.5547 312.079 98.6853 311.354 100.136C310.628 101.544 310.266 103.208 310.266 105.128C310.266 107.005 310.628 108.669 311.354 110.12C312.079 111.528 313.103 112.637 314.426 113.448C315.748 114.259 317.263 114.664 318.97 114.664ZM352.592 121.768C349.989 121.768 347.771 121.213 345.936 120.104C344.101 118.995 342.693 117.352 341.712 115.176C340.731 112.957 340.24 110.248 340.24 107.048V89.256H348.816V106.28C348.816 108.925 349.349 110.952 350.416 112.36C351.525 113.768 353.232 114.472 355.536 114.472C357.029 114.472 358.331 114.131 359.44 113.448C360.592 112.723 361.488 111.699 362.128 110.376C362.768 109.053 363.088 107.475 363.088 105.64V89.256H371.728V121H364.368L363.6 115.944H363.344C362.363 117.736 360.976 119.165 359.184 120.232C357.435 121.256 355.237 121.768 352.592 121.768ZM390.185 121.768C387.369 121.768 384.873 121.299 382.697 120.36C380.563 119.421 378.835 118.141 377.513 116.52C376.233 114.856 375.486 112.979 375.273 110.888H383.913C384.083 111.656 384.425 112.381 384.937 113.064C385.449 113.747 386.131 114.301 386.985 114.728C387.881 115.112 388.905 115.304 390.057 115.304C391.251 115.304 392.211 115.155 392.937 114.856C393.662 114.515 394.195 114.088 394.537 113.576C394.921 113.064 395.113 112.509 395.113 111.912C395.113 111.101 394.835 110.483 394.281 110.056C393.769 109.587 393.001 109.181 391.977 108.84C390.995 108.499 389.822 108.136 388.457 107.752C387.049 107.368 385.619 106.963 384.169 106.536C382.761 106.109 381.459 105.576 380.265 104.936C379.07 104.253 378.11 103.4 377.385 102.376C376.702 101.309 376.361 99.9867 376.361 98.408C376.361 96.5733 376.873 94.9093 377.897 93.416C378.921 91.9227 380.393 90.728 382.312 89.832C384.275 88.936 386.601 88.488 389.289 88.488C393.129 88.488 396.179 89.3627 398.441 91.112C400.745 92.8613 402.089 95.272 402.473 98.344H394.345C394.131 97.2773 393.577 96.4453 392.681 95.848C391.827 95.2507 390.697 94.952 389.289 94.952C387.795 94.952 386.643 95.2507 385.833 95.848C385.065 96.4027 384.681 97.0853 384.681 97.896C384.681 98.4933 384.937 99.0053 385.449 99.432C385.961 99.816 386.707 100.179 387.689 100.52C388.713 100.819 389.929 101.16 391.337 101.544C393.598 102.141 395.667 102.781 397.545 103.464C399.422 104.147 400.915 105.085 402.025 106.28C403.134 107.432 403.689 109.075 403.689 111.208C403.731 113.256 403.198 115.069 402.089 116.648C400.979 118.227 399.422 119.485 397.417 120.424C395.411 121.32 393.001 121.768 390.185 121.768ZM408.522 121V89.256H417.162V121H408.522ZM412.874 85.224C411.295 85.224 409.994 84.776 408.97 83.88C407.988 82.9413 407.498 81.768 407.498 80.36C407.498 78.952 407.988 77.7787 408.97 76.84C409.994 75.9013 411.295 75.432 412.874 75.432C414.452 75.432 415.732 75.9013 416.714 76.84C417.695 77.7787 418.186 78.952 418.186 80.36C418.186 81.7253 417.695 82.8773 416.714 83.816C415.732 84.7547 414.452 85.224 412.874 85.224ZM423.31 121V89.256H430.67L431.438 94.44H431.694C432.718 92.5627 434.105 91.112 435.854 90.088C437.603 89.0213 439.801 88.488 442.446 88.488C445.091 88.488 447.331 89.064 449.166 90.216C451.001 91.3253 452.387 92.968 453.326 95.144C454.307 97.32 454.798 100.008 454.798 103.208V121H446.158V103.976C446.158 101.331 445.625 99.304 444.558 97.896C443.491 96.488 441.806 95.784 439.502 95.784C438.051 95.784 436.75 96.1467 435.598 96.872C434.446 97.5547 433.55 98.5573 432.91 99.88C432.27 101.16 431.95 102.739 431.95 104.616V121H423.31ZM475.239 121.768C471.996 121.768 469.116 121.085 466.599 119.72C464.124 118.355 462.183 116.435 460.775 113.96C459.367 111.485 458.663 108.648 458.663 105.448C458.663 102.12 459.345 99.1973 460.711 96.68C462.119 94.12 464.06 92.1147 466.535 90.664C469.052 89.2133 471.953 88.488 475.239 88.488C478.439 88.488 481.233 89.1707 483.623 90.536C486.012 91.9013 487.889 93.7787 489.255 96.168C490.62 98.5147 491.303 101.181 491.303 104.168C491.303 104.595 491.281 105.085 491.239 105.64C491.239 106.152 491.217 106.685 491.175 107.24H464.807V101.928H482.535C482.407 99.9227 481.66 98.3227 480.295 97.128C478.972 95.9333 477.308 95.336 475.303 95.336C473.809 95.336 472.444 95.6773 471.207 96.36C469.969 97 468.988 98.0027 468.263 99.368C467.537 100.691 467.175 102.376 467.175 104.424V106.28C467.175 108.029 467.516 109.544 468.199 110.824C468.881 112.061 469.82 113.021 471.015 113.704C472.252 114.387 473.639 114.728 475.175 114.728C476.753 114.728 478.076 114.387 479.143 113.704C480.209 112.979 481.02 112.061 481.575 110.952H490.343C489.745 112.957 488.743 114.792 487.335 116.456C485.927 118.077 484.199 119.379 482.151 120.36C480.103 121.299 477.799 121.768 475.239 121.768ZM508.435 121.768C505.619 121.768 503.123 121.299 500.947 120.36C498.813 119.421 497.085 118.141 495.763 116.52C494.483 114.856 493.736 112.979 493.523 110.888H502.163C502.333 111.656 502.675 112.381 503.187 113.064C503.699 113.747 504.381 114.301 505.235 114.728C506.131 115.112 507.155 115.304 508.307 115.304C509.501 115.304 510.461 115.155 511.187 114.856C511.912 114.515 512.445 114.088 512.787 113.576C513.171 113.064 513.363 112.509 513.363 111.912C513.363 111.101 513.085 110.483 512.531 110.056C512.019 109.587 511.251 109.181 510.227 108.84C509.245 108.499 508.072 108.136 506.707 107.752C505.299 107.368 503.869 106.963 502.419 106.536C501.011 106.109 499.709 105.576 498.515 104.936C497.32 104.253 496.36 103.4 495.635 102.376C494.952 101.309 494.611 99.9867 494.611 98.408C494.611 96.5733 495.123 94.9093 496.147 93.416C497.171 91.9227 498.643 90.728 500.562 89.832C502.525 88.936 504.851 88.488 507.539 88.488C511.379 88.488 514.429 89.3627 516.691 91.112C518.995 92.8613 520.339 95.272 520.723 98.344H512.595C512.381 97.2773 511.827 96.4453 510.931 95.848C510.077 95.2507 508.947 94.952 507.539 94.952C506.045 94.952 504.893 95.2507 504.083 95.848C503.315 96.4027 502.931 97.0853 502.931 97.896C502.931 98.4933 503.187 99.0053 503.699 99.432C504.211 99.816 504.957 100.179 505.939 100.52C506.963 100.819 508.179 101.16 509.587 101.544C511.848 102.141 513.917 102.781 515.795 103.464C517.672 104.147 519.165 105.085 520.275 106.28C521.384 107.432 521.939 109.075 521.939 111.208C521.981 113.256 521.448 115.069 520.339 116.648C519.229 118.227 517.672 119.485 515.667 120.424C513.661 121.32 511.251 121.768 508.435 121.768ZM539.06 121.768C536.244 121.768 533.748 121.299 531.572 120.36C529.438 119.421 527.71 118.141 526.388 116.52C525.108 114.856 524.361 112.979 524.148 110.888H532.788C532.958 111.656 533.3 112.381 533.812 113.064C534.324 113.747 535.006 114.301 535.86 114.728C536.756 115.112 537.78 115.304 538.932 115.304C540.126 115.304 541.086 115.155 541.812 114.856C542.537 114.515 543.07 114.088 543.412 113.576C543.796 113.064 543.988 112.509 543.988 111.912C543.988 111.101 543.71 110.483 543.156 110.056C542.644 109.587 541.876 109.181 540.852 108.84C539.87 108.499 538.697 108.136 537.332 107.752C535.924 107.368 534.494 106.963 533.044 106.536C531.636 106.109 530.334 105.576 529.14 104.936C527.945 104.253 526.985 103.4 526.26 102.376C525.577 101.309 525.236 99.9867 525.236 98.408C525.236 96.5733 525.748 94.9093 526.772 93.416C527.796 91.9227 529.268 90.728 531.188 89.832C533.15 88.936 535.476 88.488 538.164 88.488C542.004 88.488 545.054 89.3627 547.316 91.112C549.62 92.8613 550.964 95.272 551.348 98.344H543.22C543.006 97.2773 542.452 96.4453 541.556 95.848C540.702 95.2507 539.572 94.952 538.164 94.952C536.67 94.952 535.518 95.2507 534.708 95.848C533.94 96.4027 533.556 97.0853 533.556 97.896C533.556 98.4933 533.812 99.0053 534.324 99.432C534.836 99.816 535.582 100.179 536.564 100.52C537.588 100.819 538.804 101.16 540.212 101.544C542.473 102.141 544.542 102.781 546.42 103.464C548.297 104.147 549.79 105.085 550.9 106.28C552.009 107.432 552.564 109.075 552.564 111.208C552.606 113.256 552.073 115.069 550.964 116.648C549.854 118.227 548.297 119.485 546.292 120.424C544.286 121.32 541.876 121.768 539.06 121.768ZM4.928 197V163.144C4.928 160.456 5.376 158.323 6.272 156.744C7.21067 155.165 8.512 154.013 10.176 153.288C11.84 152.563 13.8027 152.2 16.064 152.2H19.584V159.368H17.408C16.0427 159.368 15.0613 159.645 14.464 160.2C13.8667 160.755 13.568 161.693 13.568 163.016V197H4.928ZM0.64 172.168V165.256H20.288V172.168H0.64ZM33.1155 197.768C30.5982 197.768 28.5075 197.341 26.8435 196.488C25.2222 195.635 24.0275 194.483 23.2595 193.032C22.4915 191.581 22.1075 189.981 22.1075 188.232C22.1075 186.269 22.5982 184.541 23.5795 183.048C24.6035 181.555 26.1395 180.403 28.1875 179.592C30.2355 178.739 32.8168 178.312 35.9315 178.312H43.9315C43.9315 176.733 43.6968 175.432 43.2275 174.408C42.8008 173.384 42.1182 172.616 41.1795 172.104C40.2835 171.592 39.1315 171.336 37.7235 171.336C36.0595 171.336 34.6302 171.72 33.4355 172.488C32.2835 173.213 31.5582 174.365 31.2595 175.944H22.8755C23.1315 173.597 23.8995 171.571 25.1795 169.864C26.5022 168.157 28.2302 166.835 30.3635 165.896C32.5395 164.957 34.9928 164.488 37.7235 164.488C40.7955 164.488 43.4408 165 45.6595 166.024C47.8782 167.005 49.5848 168.477 50.7795 170.44C51.9742 172.36 52.5715 174.707 52.5715 177.48V197H45.4035L44.5075 192.072H44.2515C43.5688 193.011 42.8222 193.843 42.0115 194.568C41.2435 195.293 40.3902 195.891 39.4515 196.36C38.5128 196.829 37.5102 197.171 36.4435 197.384C35.3768 197.64 34.2675 197.768 33.1155 197.768ZM35.9315 191.112C37.1262 191.112 38.1502 190.92 39.0035 190.536C39.8995 190.109 40.6675 189.555 41.3075 188.872C41.9475 188.189 42.4382 187.4 42.7795 186.504C43.1635 185.565 43.4195 184.605 43.5475 183.624H36.8915C35.5688 183.624 34.4808 183.795 33.6275 184.136C32.8168 184.435 32.2195 184.883 31.8355 185.48C31.4515 186.035 31.2595 186.696 31.2595 187.464C31.2595 188.232 31.4515 188.893 31.8355 189.448C32.2195 190.003 32.7742 190.429 33.4995 190.728C34.2248 190.984 35.0355 191.112 35.9315 191.112ZM70.6845 197.768C67.8685 197.768 65.3725 197.299 63.1965 196.36C61.0632 195.421 59.3352 194.141 58.0125 192.52C56.7325 190.856 55.9858 188.979 55.7725 186.888H64.4125C64.5832 187.656 64.9245 188.381 65.4365 189.064C65.9485 189.747 66.6312 190.301 67.4845 190.728C68.3805 191.112 69.4045 191.304 70.5565 191.304C71.7512 191.304 72.7112 191.155 73.4365 190.856C74.1618 190.515 74.6952 190.088 75.0365 189.576C75.4205 189.064 75.6125 188.509 75.6125 187.912C75.6125 187.101 75.3352 186.483 74.7805 186.056C74.2685 185.587 73.5005 185.181 72.4765 184.84C71.4952 184.499 70.3218 184.136 68.9565 183.752C67.5485 183.368 66.1192 182.963 64.6685 182.536C63.2605 182.109 61.9592 181.576 60.7645 180.936C59.5698 180.253 58.6098 179.4 57.8845 178.376C57.2018 177.309 56.8605 175.987 56.8605 174.408C56.8605 172.573 57.3725 170.909 58.3965 169.416C59.4205 167.923 60.8925 166.728 62.8125 165.832C64.7752 164.936 67.1005 164.488 69.7885 164.488C73.6285 164.488 76.6792 165.363 78.9405 167.112C81.2445 168.861 82.5885 171.272 82.9725 174.344H74.8445C74.6312 173.277 74.0765 172.445 73.1805 171.848C72.3272 171.251 71.1965 170.952 69.7885 170.952C68.2952 170.952 67.1432 171.251 66.3325 171.848C65.5645 172.403 65.1805 173.085 65.1805 173.896C65.1805 174.493 65.4365 175.005 65.9485 175.432C66.4605 175.816 67.2072 176.179 68.1885 176.52C69.2125 176.819 70.4285 177.16 71.8365 177.544C74.0978 178.141 76.1672 178.781 78.0445 179.464C79.9218 180.147 81.4152 181.085 82.5245 182.28C83.6338 183.432 84.1885 185.075 84.1885 187.208C84.2312 189.256 83.6978 191.069 82.5885 192.648C81.4792 194.227 79.9218 195.485 77.9165 196.424C75.9112 197.32 73.5005 197.768 70.6845 197.768ZM101.462 197C99.2002 197 97.2162 196.659 95.5095 195.976C93.8455 195.251 92.5442 194.077 91.6055 192.456C90.6668 190.792 90.1975 188.531 90.1975 185.672V172.168H84.7575V165.256H90.1975L91.1575 156.616H98.8375V165.256H107.286V172.168H98.8375V185.8C98.8375 187.336 99.1575 188.403 99.7975 189C100.438 189.555 101.526 189.832 103.062 189.832H107.094V197H101.462ZM124.989 197.768C121.746 197.768 118.866 197.085 116.349 195.72C113.874 194.355 111.933 192.435 110.525 189.96C109.117 187.485 108.413 184.648 108.413 181.448C108.413 178.12 109.095 175.197 110.461 172.68C111.869 170.12 113.81 168.115 116.285 166.664C118.802 165.213 121.703 164.488 124.989 164.488C128.189 164.488 130.983 165.171 133.373 166.536C135.762 167.901 137.639 169.779 139.005 172.168C140.37 174.515 141.053 177.181 141.053 180.168C141.053 180.595 141.031 181.085 140.989 181.64C140.989 182.152 140.967 182.685 140.925 183.24H114.557V177.928H132.285C132.157 175.923 131.41 174.323 130.045 173.128C128.722 171.933 127.058 171.336 125.053 171.336C123.559 171.336 122.194 171.677 120.957 172.36C119.719 173 118.738 174.003 118.013 175.368C117.287 176.691 116.925 178.376 116.925 180.424V182.28C116.925 184.029 117.266 185.544 117.949 186.824C118.631 188.061 119.57 189.021 120.765 189.704C122.002 190.387 123.389 190.728 124.925 190.728C126.503 190.728 127.826 190.387 128.893 189.704C129.959 188.979 130.77 188.061 131.325 186.952H140.093C139.495 188.957 138.493 190.792 137.085 192.456C135.677 194.077 133.949 195.379 131.901 196.36C129.853 197.299 127.549 197.768 124.989 197.768ZM144.873 197V165.256H152.233L153.001 172.232H153.257C154.195 169.971 155.219 168.307 156.329 167.24C157.438 166.131 158.697 165.405 160.105 165.064C161.555 164.68 163.177 164.488 164.969 164.488V173.64H162.601C161.15 173.64 159.849 173.811 158.697 174.152C157.587 174.451 156.649 174.963 155.881 175.688C155.113 176.371 154.515 177.288 154.089 178.44C153.705 179.592 153.513 180.979 153.513 182.6V197H144.873Z" fill="white"/>
</svg>
